<?xml version="1.0" standalone="no"?>
<!DOCTYPE svg PUBLIC "-//W3C//DTD SVG 20010904//EN"
 "http://www.w3.org/TR/2001/REC-SVG-20010904/DTD/svg10.dtd">
<svg version="1.0" xmlns="http://www.w3.org/2000/svg"
 width="960.000000pt" height="1280.000000pt" viewBox="0 0 960.000000 1280.000000"
 preserveAspectRatio="xMidYMid meet">

<g transform="translate(0.000000,1280.000000) scale(0.100000,-0.100000)"
fill="#000000" stroke="none">
<path d="M0 12593 c1 -114 5 -201 9 -194 6 10 10 9 15 -4 8 -23 8 -25 -6 -25
-9 0 -14 -19 -15 -58 l-3 -57 21 25 21 25 -21 -38 c-21 -38 -21 -46 -21 -707
l0 -669 38 6 c20 3 57 14 81 24 24 11 50 19 57 19 8 0 14 5 14 11 0 6 7 9 15
6 8 -4 17 -2 20 3 4 6 11 10 16 10 6 0 4 -6 -3 -13 -19 -19 -84 -57 -96 -57
-6 0 -37 -12 -69 -27 -32 -14 -61 -25 -65 -25 -5 1 -8 -60 -8 -135 1 -130 2
-136 15 -99 15 42 35 69 35 48 0 -7 -6 -23 -14 -35 -19 -29 -36 -168 -35 -282
l1 -90 13 97 c12 87 61 275 70 267 2 -2 -10 -53 -26 -113 -15 -60 -31 -141
-34 -180 -3 -39 -8 -96 -11 -126 l-5 -55 20 25 c12 14 18 34 15 45 -3 11 2 36
11 55 16 35 16 32 0 -40 -4 -14 5 1 19 33 14 32 23 64 20 71 -3 7 0 23 6 37
10 23 10 23 5 -5 -6 -26 -4 -28 9 -17 21 17 21 18 -14 -72 -17 -43 -30 -90
-30 -105 0 -15 -7 -49 -15 -76 -8 -27 -15 -63 -15 -80 l0 -31 14 27 c8 15 21
51 30 81 15 53 52 141 42 102 -7 -29 -73 -255 -84 -290 -15 -43 -22 -116 -11
-109 5 3 9 17 9 31 0 15 3 24 6 20 6 -6 -7 -91 -30 -199 -20 -90 0 -68 22 25
12 52 19 109 17 157 -2 54 2 86 15 115 10 22 23 63 31 92 7 29 16 50 21 47 4
-3 8 0 8 7 0 7 3 9 6 6 4 -4 2 -12 -3 -19 -12 -15 -49 -172 -57 -238 -5 -41
-3 -39 14 20 11 36 31 99 44 140 13 41 30 95 37 120 7 25 28 77 46 117 39 83
55 150 32 139 -8 -4 -4 1 9 10 12 9 22 24 22 33 0 9 11 52 25 96 14 44 25 92
25 107 0 15 4 30 10 33 5 3 10 21 10 39 0 17 5 37 11 43 13 13 50 175 51 225
0 21 4 36 8 33 12 -8 17 13 35 146 9 68 25 169 35 224 10 55 22 118 25 140 6
31 9 36 15 20 5 -16 8 -13 13 15 4 18 10 31 12 28 3 -3 1 -27 -5 -53 -6 -27
-8 -55 -6 -62 3 -8 2 -12 -3 -9 -9 6 -21 -64 -21 -126 0 -27 -4 -37 -12 -32
-6 4 -8 3 -5 -3 3 -5 1 -32 -6 -59 -12 -50 -14 -126 -3 -179 5 -25 4 -26 -2
-5 -8 22 -10 19 -20 -28 -15 -66 -15 -82 -1 -62 10 13 10 13 6 0 -2 -8 -10
-41 -17 -72 -7 -32 -16 -55 -21 -53 -9 6 -36 -148 -38 -222 -1 -12 -7 -28 -14
-35 -24 -26 -46 -84 -50 -128 -4 -45 -4 -45 -5 8 -2 66 -17 60 -25 -10 -4 -30
-13 -74 -21 -98 -8 -25 -20 -79 -27 -120 -12 -69 -14 -72 -20 -40 -3 19 -7 29
-8 22 0 -7 -5 -10 -11 -7 -6 3 -10 -4 -10 -17 0 -18 2 -20 10 -8 8 13 10 12
10 -2 0 -10 -7 -18 -15 -18 -8 0 -15 -2 -15 -4 0 -3 -19 -74 -41 -158 -23 -84
-44 -169 -46 -188 -2 -19 -10 -51 -17 -70 -7 -19 -16 -53 -20 -75 l-6 -40 21
35 c11 19 17 26 14 15 -34 -108 -65 -263 -86 -425 -5 -41 -12 -538 -15 -1104
-5 -859 -4 -1030 7 -1037 11 -6 11 -11 1 -21 -15 -15 -16 -90 0 -106 9 -9 9
-15 0 -24 -18 -18 -17 -4146 1 -4168 7 -8 24 -21 39 -29 16 -8 28 -20 28 -28
0 -7 6 -13 13 -13 15 0 146 -96 189 -139 15 -14 43 -37 63 -51 20 -14 73 -55
118 -91 159 -127 299 -207 378 -215 33 -3 39 -2 24 5 -22 11 -28 9 62 17 43 3
114 35 106 47 -3 6 -1 7 4 4 9 -6 48 12 155 70 15 8 32 21 37 30 5 10 16 14
29 11 12 -3 20 -2 19 4 -1 5 22 19 51 32 29 12 58 28 64 34 7 7 17 12 24 12
12 0 104 47 119 61 5 5 15 9 23 9 8 0 30 7 50 16 48 21 73 31 95 38 9 3 27 21
38 41 12 19 25 35 30 35 5 0 9 7 9 15 0 8 9 15 19 15 14 0 18 5 14 20 -3 11 2
31 11 45 9 13 16 38 16 55 0 28 2 30 21 20 28 -15 36 -5 16 18 -10 10 -17 28
-17 40 0 11 -7 27 -15 35 -8 8 -12 17 -9 19 2 3 5 43 5 89 1 46 6 90 11 96 6
7 8 22 5 33 -3 11 0 23 5 27 7 4 4 11 -7 20 -11 7 -16 13 -12 13 4 0 2 12 -3
26 -7 16 -7 23 0 19 6 -3 10 -2 10 4 0 5 -5 13 -11 16 -6 4 -8 14 -5 22 3 8
-1 25 -10 39 -13 19 -14 27 -4 39 10 12 9 16 -3 21 -9 3 -14 11 -11 18 8 20
-14 66 -31 66 -14 0 -16 6 -19 52 -1 9 -4 20 -8 24 -5 4 -8 20 -8 36 0 18 -5
28 -15 28 -18 0 -39 36 -25 45 5 3 8 25 5 48 -5 38 -13 168 -18 272 -1 22 -6
45 -10 52 -5 7 1 13 15 16 21 4 20 4 -3 6 -34 1 -59 28 -35 37 15 6 14 8 -4
21 -16 11 -24 12 -34 4 -10 -9 -15 -8 -19 3 -4 9 3 16 18 20 12 3 25 13 29 21
6 18 -7 19 -36 4 -19 -10 -20 -9 -14 14 4 16 1 28 -7 31 -6 3 7 4 30 1 23 -3
45 -1 48 5 4 6 11 8 16 5 5 -4 9 -2 9 4 0 16 -20 23 -34 12 -7 -6 -21 -8 -30
-5 -16 6 -16 8 0 25 18 21 49 25 59 9 10 -17 25 -11 25 9 0 10 -8 22 -17 26
-16 7 -14 9 7 15 33 9 62 1 56 -16 -3 -7 0 -16 6 -20 6 -4 8 -3 4 4 -3 6 -2
14 4 17 17 11 -9 35 -37 35 -13 0 -33 -5 -45 -11 -11 -6 -23 -7 -26 -3 -4 4
-1 9 6 11 6 3 12 11 12 18 0 10 11 12 43 8 28 -3 38 -1 28 5 -9 7 -10 12 -2
16 6 4 11 2 11 -3 0 -14 37 -14 45 -1 5 8 11 7 21 -1 10 -8 14 -8 14 0 0 6 8
11 19 11 10 0 21 9 24 20 3 13 10 18 21 14 9 -3 16 -2 16 4 0 6 9 8 20 5 12
-3 20 0 20 7 0 8 8 10 24 6 18 -4 33 1 55 20 17 14 35 23 39 20 5 -3 17 3 27
14 9 10 22 17 29 14 6 -2 21 4 31 13 24 21 76 47 89 44 5 -1 12 2 15 7 3 4 24
15 46 24 37 14 41 14 60 -4 22 -21 72 -48 90 -48 7 0 18 6 24 14 10 11 8 16
-8 21 -29 9 -72 45 -66 56 4 5 15 9 25 9 10 0 20 3 22 8 2 4 35 18 73 31 39
13 86 30 105 38 64 27 75 31 105 41 17 6 22 11 13 11 -10 1 -18 6 -18 12 0 8
11 9 31 5 23 -4 43 0 72 17 41 22 53 30 99 71 34 29 65 46 83 46 8 0 12 6 9
13 -3 8 12 25 33 40 21 15 34 27 30 27 -4 0 10 19 33 42 22 23 40 45 40 49 0
8 27 19 45 19 5 0 8 -14 7 -30 -2 -17 -1 -30 1 -30 12 0 173 86 182 97 6 7 22
17 38 22 15 6 27 17 27 25 0 7 14 16 31 20 17 3 28 10 25 15 -3 5 4 7 16 3 14
-3 19 -2 14 6 -4 7 -3 12 3 12 14 0 125 51 131 60 3 4 23 13 46 19 45 12 110
53 107 67 0 5 26 10 58 11 36 1 57 -2 54 -7 -4 -6 -12 -10 -19 -10 -8 0 -19
-7 -26 -15 -10 -12 -9 -15 7 -15 11 0 23 -3 27 -7 35 -36 313 -54 421 -28 73
17 78 18 70 5 -9 -15 6 -12 19 4 6 8 60 33 119 56 96 37 114 41 165 36 31 -3
145 -8 252 -11 107 -3 245 -10 305 -15 61 -5 169 -14 240 -20 119 -10 242 -24
305 -36 57 -10 193 -23 318 -30 l134 -7 -7 -24 c-13 -54 -25 -180 -19 -208 15
-70 103 -215 151 -250 14 -11 15 -14 1 -33 -8 -12 -18 -19 -21 -15 -4 3 -7 -6
-7 -21 0 -19 -6 -29 -20 -33 -10 -3 -22 -13 -25 -24 -3 -10 -15 -21 -26 -24
-10 -4 -19 -10 -19 -15 0 -5 -11 -26 -25 -46 -14 -21 -23 -44 -20 -52 5 -15
-19 -45 -29 -35 -3 4 -6 2 -6 -4 0 -6 6 -13 14 -16 22 -9 25 -63 5 -75 -15 -9
-19 -7 -22 11 -3 12 -4 -9 -2 -48 5 -106 23 -159 75 -221 33 -39 128 -114 145
-114 7 0 16 -8 19 -17 6 -15 8 -15 16 -3 6 9 10 10 10 3 0 -6 15 -16 33 -22
23 -9 28 -14 18 -20 -17 -11 -2 -21 43 -31 17 -4 30 -12 29 -18 -3 -13 82 -46
96 -37 7 3 10 1 9 -6 -2 -7 2 -13 7 -14 6 0 19 -6 30 -12 11 -5 38 -16 60 -23
22 -7 45 -16 50 -20 6 -4 19 -10 30 -13 11 -3 58 -21 105 -41 46 -20 88 -36
93 -36 4 0 33 -11 63 -25 30 -14 57 -25 60 -25 5 0 60 -24 149 -65 54 -25 259
-90 313 -99 18 -3 32 -1 32 4 0 6 5 10 10 10 6 0 9 -5 8 -12 -4 -18 112 -35
122 -18 5 8 34 14 76 15 82 3 177 37 216 77 14 15 33 28 42 28 10 0 13 6 10
15 -4 8 -1 22 5 29 9 11 9 16 0 21 -8 6 -7 10 2 16 11 6 9 9 -7 9 -26 0 -45
40 -38 79 7 33 -11 51 -21 21 -6 -20 -9 -19 -41 14 -18 19 -42 37 -53 41 -26
8 -53 52 -46 75 3 10 1 21 -5 25 -7 4 -14 -2 -17 -14 -7 -27 -23 -17 -23 16 0
20 4 24 19 20 14 -3 23 3 31 24 13 30 24 36 35 19 3 -5 -1 -10 -9 -10 -34 0
-9 -104 27 -116 29 -9 28 -1 -3 33 -36 39 -37 46 -6 71 16 12 26 31 28 53 2
19 8 34 13 35 31 2 64 25 67 46 3 20 8 23 43 21 22 -1 33 0 25 4 -24 10 -75
55 -59 53 25 -4 39 0 39 10 0 6 -24 10 -54 10 -60 0 -87 18 -61 40 16 13 21
35 6 25 -5 -3 -12 -1 -15 4 -4 5 -1 13 6 17 9 6 5 10 -12 14 -15 4 -24 13 -24
23 1 10 -6 17 -17 17 -10 0 -19 5 -19 10 0 6 17 8 43 5 l42 -5 -32 15 c-17 8
-35 20 -38 26 -6 8 -9 8 -15 -1 -4 -6 -10 24 -14 66 -3 43 -9 80 -14 83 -4 3
-7 37 -7 74 0 60 2 68 17 63 14 -3 18 2 18 20 0 13 5 24 10 24 6 0 10 7 10 15
0 8 7 15 15 15 8 0 15 7 15 15 0 8 -5 15 -11 15 -6 0 -4 7 5 15 22 22 29 54
16 70 -10 12 -9 16 4 21 13 5 14 9 4 21 -9 11 -8 21 6 44 16 27 16 32 3 42 -8
7 -22 24 -32 40 -15 24 -16 27 -1 27 10 0 13 6 10 15 -4 8 -14 15 -23 15 -14
0 -14 2 -1 10 13 8 13 13 -2 37 -15 24 -23 28 -62 28 -25 0 -51 6 -58 13 -11
11 -9 13 12 9 14 -2 20 -2 15 0 -13 5 -18 90 -5 98 13 8 -9 65 -27 65 -8 0
-11 5 -8 11 9 13 -23 49 -43 49 -9 0 -13 7 -9 20 3 11 -1 27 -9 34 -8 8 -14
24 -14 35 0 11 -4 22 -8 25 -12 7 -2 74 14 87 8 6 14 20 14 30 0 11 4 19 10
19 5 0 7 13 4 29 -4 18 -1 33 8 41 8 8 12 26 10 41 -3 21 1 29 19 34 13 5 29
14 35 22 5 8 26 17 45 18 47 5 47 5 19 16 -34 14 -7 30 31 19 20 -6 29 -5 29
3 0 7 15 13 33 14 17 1 40 3 50 3 9 1 36 19 60 40 44 42 63 50 53 25 -7 -19 8
-19 24 0 18 22 2 37 -31 30 -31 -7 -34 -3 -19 25 8 15 6 20 -11 25 -11 4 -18
9 -15 12 3 4 0 11 -8 17 -20 16 -29 139 -10 132 7 -3 16 -1 19 4 3 4 -1 10 -7
13 -10 3 -10 9 1 28 10 16 10 24 2 27 -6 2 -11 12 -11 21 0 10 -17 38 -38 62
-70 80 -72 86 -72 180 0 68 -3 88 -15 93 -8 3 -15 15 -15 26 0 11 -7 20 -16
20 -8 0 -13 4 -9 9 3 5 -4 13 -16 16 -12 4 -18 12 -15 21 3 9 -2 17 -12 21 -9
3 -26 15 -37 27 -22 23 -46 39 -85 58 -14 7 -31 19 -39 26 -13 12 -44 11 -116
-4 -13 -2 -14 -1 -5 3 9 4 -6 11 -40 18 -30 6 -60 8 -65 4 -6 -4 -29 -2 -53 4
-37 10 -43 9 -57 -8 -8 -11 -15 -15 -15 -7 0 6 -12 12 -26 12 -15 0 -44 5 -66
12 -28 8 -45 9 -56 1 -10 -5 -26 -9 -37 -7 -73 12 -119 14 -100 4 15 -8 2 -9
-50 -6 -38 2 -95 1 -125 -4 -30 -4 -63 -4 -72 1 -20 11 -56 0 -38 -11 16 -10
-50 -4 -79 7 -14 6 -42 6 -65 2 -23 -5 -57 -8 -76 -7 l-35 1 40 7 c33 6 27 7
-37 9 -63 1 -78 -2 -78 -14 0 -15 -31 -21 -44 -8 -10 10 -36 13 -36 4 0 -12
-54 0 -62 13 -6 8 -11 6 -18 -4 -7 -11 -12 -12 -21 -3 -8 8 -39 10 -100 6 -64
-4 -89 -3 -89 6 0 12 -32 15 -44 4 -3 -4 -86 -8 -184 -9 -123 -1 -198 -7 -247
-18 -90 -21 -225 -45 -295 -51 -92 -9 -134 -17 -147 -27 -7 -5 -21 -7 -33 -3
-12 4 -27 2 -33 -4 -9 -7 -16 -4 -26 10 -11 19 -10 20 7 15 13 -5 22 -1 26 10
5 13 9 15 18 6 14 -14 48 -16 48 -2 0 5 13 7 30 4 l30 -6 0 55 c0 30 7 71 15
90 16 38 20 77 5 42 -7 -14 -9 -1 -9 45 0 36 -4 79 -9 95 -6 23 -5 33 6 41 13
10 14 16 3 42 -7 18 -11 38 -8 45 7 19 -12 255 -23 292 -6 17 -12 120 -14 230
-3 110 -8 210 -12 223 -7 25 -24 30 -24 7 0 -8 -6 -12 -13 -9 -7 2 -23 -7 -35
-21 -12 -14 -28 -22 -36 -19 -9 3 -20 -5 -29 -22 l-14 -28 -14 26 c-12 22 -17
24 -30 15 -9 -7 -18 -17 -20 -23 -3 -8 -12 -9 -29 -2 l-25 9 25 16 c29 17 53
60 43 76 -4 6 -8 22 -9 35 -2 13 -8 30 -15 38 -9 11 -8 14 5 14 9 0 16 7 16
15 0 9 7 18 15 21 8 4 12 10 9 15 -7 12 35 48 56 49 13 0 13 -1 0 -10 -8 -5
-10 -10 -5 -10 6 0 16 4 24 9 10 7 7 14 -16 35 -28 25 -30 30 -22 69 4 23 8
45 9 50 0 12 30 8 30 -5 1 -7 7 -2 14 11 13 23 14 23 24 5 10 -18 11 -18 18
-1 4 10 2 23 -5 30 -6 6 -11 35 -11 65 0 48 -13 122 -27 162 -10 26 -17 55
-29 118 -6 28 -10 33 -28 28 -11 -3 -29 -6 -38 -6 -27 0 -25 -75 1 -90 25 -13
34 -13 26 0 -3 6 4 10 15 10 19 0 21 -4 16 -25 -4 -14 -15 -34 -25 -44 -10
-10 -29 -39 -42 -65 -13 -26 -25 -43 -27 -37 -3 9 -33 -13 -78 -56 -22 -22
-26 -15 -18 30 4 23 6 65 6 94 -1 40 3 55 16 62 16 10 16 10 0 11 -10 0 -18 7
-18 16 0 8 4 13 9 9 6 -3 28 -3 50 1 l40 6 0 101 c0 56 -4 106 -9 112 -15 18
-42 106 -36 120 3 8 2 15 -2 17 -13 6 -61 107 -53 112 9 6 43 -38 55 -69 6
-16 9 -17 16 -5 5 8 7 17 4 21 -8 14 -24 103 -28 159 -2 30 -11 71 -19 90 -21
46 -22 14 -2 -60 8 -30 15 -57 14 -60 -1 -16 -48 89 -49 108 0 12 -5 22 -10
22 -6 0 -20 15 -31 33 -17 27 -20 28 -14 7 4 -14 13 -38 21 -54 17 -34 18 -50
4 -41 -6 4 -8 11 -5 16 4 5 3 9 -2 9 -10 0 -20 22 -67 147 -30 80 -43 101 -96
152 -33 32 -60 58 -60 56 0 -19 170 -378 207 -439 36 -56 9 -34 -31 27 -39 59
-91 154 -132 240 -15 31 -30 57 -34 57 -4 0 -18 32 -30 71 -13 39 -29 77 -37
85 -8 7 -12 17 -10 21 5 10 -30 43 -37 35 -3 -3 -6 -48 -7 -101 0 -53 -5 -118
-10 -146 -22 -110 -22 -119 8 -191 16 -38 35 -89 42 -114 7 -25 19 -58 27 -74
28 -56 8 -35 -31 32 -52 88 -75 139 -67 147 4 3 -1 3 -10 0 -12 -5 -17 -17
-16 -43 1 -20 -4 -38 -10 -40 -7 -2 -12 -21 -12 -42 0 -27 -5 -39 -17 -42 -16
-4 -18 3 -19 53 0 48 3 58 18 62 10 3 18 14 18 25 0 11 6 25 14 31 18 15 12
59 -20 159 -13 40 -24 78 -24 86 0 7 -7 27 -16 45 -9 18 -18 50 -21 71 -3 22
-9 37 -14 35 -4 -3 -7 9 -7 27 0 18 -9 65 -22 103 -12 39 -24 83 -27 98 -4 18
-10 26 -19 23 -10 -4 -12 2 -8 22 10 51 -33 119 -72 114 -6 -1 -9 10 -6 28 2
17 0 30 -6 30 -6 0 -14 9 -17 21 -5 15 -10 18 -18 10 -7 -7 -6 -16 6 -29 9
-10 17 -33 17 -50 0 -18 5 -32 10 -32 7 0 8 -13 5 -33 -5 -24 -2 -39 9 -50 18
-18 20 -27 7 -27 -17 0 -42 32 -37 46 3 8 1 14 -4 14 -6 0 -10 8 -10 18 0 18
-82 102 -100 102 -6 0 -10 4 -10 10 0 12 -48 60 -60 60 -6 0 -7 -32 -3 -82 6
-76 7 -152 3 -195 -3 -31 -23 -118 -31 -128 -3 -5 -9 -22 -13 -36 -3 -15 -13
-29 -21 -33 -20 -7 -19 -2 10 84 14 40 25 88 25 105 0 17 5 36 11 42 7 7 4 55
-11 164 -12 85 -24 180 -27 211 -3 32 -9 55 -15 52 -5 -3 -7 6 -4 20 5 28 -7
70 -35 129 -22 44 -23 51 -9 42 13 -8 13 6 0 39 -5 14 -5 28 -1 31 11 6 46
-45 43 -62 -1 -6 3 -15 9 -19 8 -4 9 -3 5 4 -12 21 8 13 34 -12 73 -71 132
-119 121 -99 -6 12 -16 25 -21 28 -6 4 -8 11 -4 16 8 13 34 -8 34 -27 0 -8 6
-14 14 -14 8 0 17 -11 20 -25 4 -14 13 -25 21 -25 10 0 15 -10 15 -26 0 -22 3
-24 14 -15 10 8 16 9 21 1 9 -14 25 -13 25 3 0 15 -44 57 -59 57 -6 0 -11 12
-11 28 0 15 -11 39 -25 54 -26 28 -32 48 -15 48 20 0 9 25 -27 62 -20 21 -33
41 -29 45 4 5 17 -3 27 -17 58 -74 148 -155 179 -162 8 -2 31 -28 52 -58 49
-73 111 -140 130 -140 9 0 21 -7 28 -15 7 -8 16 -12 21 -9 5 3 16 -11 26 -30
19 -40 38 -49 23 -12 -33 88 -117 226 -212 350 -37 49 -68 94 -68 100 0 6 -41
53 -90 104 -52 53 -88 98 -84 104 4 7 3 8 -4 4 -12 -7 -67 49 -86 86 -6 12
-30 36 -53 53 -42 30 -56 49 -28 39 8 -4 15 -1 15 5 0 13 -40 51 -54 51 -6 0
-4 5 4 10 12 7 9 11 -15 20 -16 6 -38 23 -48 38 -11 15 -38 42 -61 59 -23 18
-56 44 -72 58 l-29 25 35 -11 c19 -6 42 -20 52 -30 9 -11 24 -19 32 -19 9 0
19 -7 22 -15 3 -8 14 -17 23 -20 10 -3 27 -14 38 -24 11 -11 41 -29 66 -40 25
-12 50 -27 54 -35 11 -19 51 -38 64 -30 6 3 41 -26 80 -65 38 -39 69 -68 69
-65 0 9 -60 92 -113 158 -27 33 -49 50 -60 48 -10 -2 -17 3 -17 13 0 9 -4 14
-9 10 -13 -7 -42 35 -34 49 4 6 -1 4 -11 -4 -16 -13 -20 -12 -33 5 -9 11 -26
44 -40 73 -26 56 -137 173 -183 194 -26 11 -66 56 -57 64 8 8 57 -7 52 -16 -3
-5 13 -11 35 -15 22 -4 40 -11 40 -15 0 -5 8 -11 19 -15 10 -3 30 -16 43 -28
24 -21 38 -30 90 -59 13 -7 28 -19 34 -27 6 -8 16 -11 22 -7 6 3 14 0 19 -7
10 -17 43 -30 43 -17 0 6 -9 18 -20 27 -11 10 -20 23 -20 30 0 7 -4 13 -10 13
-5 0 -10 7 -10 15 0 8 -9 15 -19 15 -12 0 -21 9 -25 25 -5 18 -13 25 -31 25
-28 0 -65 27 -65 47 0 15 52 7 58 -9 2 -4 12 -8 23 -8 10 0 19 -6 19 -12 0
-13 82 -73 99 -73 19 0 24 -15 5 -16 -15 0 -16 -2 -4 -7 33 -15 60 -38 60 -50
0 -8 6 -12 13 -9 6 2 23 0 37 -5 20 -7 22 -11 10 -19 -12 -7 -3 -20 45 -66 58
-54 155 -123 173 -123 5 0 17 -9 27 -20 10 -11 29 -20 42 -20 24 0 32 -24 11
-34 -7 -3 -1 -3 15 0 29 7 35 -3 15 -26 -11 -12 -10 -12 4 -1 15 11 25 4 78
-52 34 -36 75 -72 91 -80 17 -8 47 -36 68 -63 87 -113 229 -263 255 -270 12
-3 29 -18 38 -35 10 -16 21 -28 25 -27 16 3 63 -26 68 -43 4 -10 10 -18 15
-16 11 3 70 -63 70 -78 0 -17 33 -45 52 -45 9 0 29 -15 44 -32 42 -51 114
-111 114 -96 0 7 -27 41 -60 75 -32 35 -66 78 -75 97 -9 18 -29 49 -46 67 -16
18 -29 40 -28 48 0 12 3 10 9 -4 8 -19 9 -19 9 -1 1 18 2 18 21 1 14 -13 20
-14 20 -5 0 35 -176 220 -209 220 -12 0 -20 4 -17 9 3 4 -9 25 -27 46 -81 94
-166 181 -210 216 -52 42 -53 45 -10 28 32 -12 -119 134 -183 177 -71 48 -86
66 -80 99 2 16 2 24 -1 17 -4 -10 -8 -10 -19 -1 -12 10 -12 14 3 25 17 13 13
19 -47 74 -36 33 -57 57 -46 54 16 -6 15 -3 -5 29 -13 20 -30 37 -37 37 -13 0
-42 23 -42 34 0 3 7 2 17 -1 11 -5 14 -3 8 6 -4 8 -3 16 4 20 8 5 0 20 -24 44
-19 20 -35 42 -35 50 0 8 -11 22 -25 31 -21 14 -58 45 -145 119 -8 8 -32 24
-52 36 -21 12 -46 32 -55 45 -10 12 -33 28 -50 35 -18 7 -33 20 -33 27 0 8 2
14 5 14 7 0 45 -23 64 -38 67 -56 149 -91 163 -69 12 19 9 25 -9 21 -19 -4
-70 32 -60 43 14 14 -18 33 -57 34 -22 1 -32 3 -21 6 11 3 24 9 30 14 12 12
68 12 60 0 -3 -5 2 -16 10 -24 8 -9 15 -20 15 -26 0 -6 7 -8 15 -5 8 3 24 -1
37 -10 12 -9 31 -16 41 -16 14 0 18 -5 14 -20 -3 -11 -1 -17 4 -14 9 5 71 -33
77 -48 2 -4 10 -4 18 -1 8 3 25 -4 37 -15 12 -11 35 -26 51 -31 17 -7 26 -16
23 -25 -3 -8 5 -18 21 -26 17 -7 28 -8 30 -1 4 12 30 4 53 -16 13 -11 18 -11
21 -2 3 9 13 7 36 -7 18 -10 30 -24 28 -31 -3 -6 1 -10 7 -7 7 2 28 -7 47 -21
19 -14 39 -25 44 -25 6 0 29 -16 50 -35 22 -19 46 -35 53 -35 8 0 16 -7 19
-15 4 -8 12 -15 19 -15 7 0 24 -9 39 -21 15 -11 33 -18 42 -15 12 5 14 1 9
-17 -5 -16 -4 -18 4 -7 8 12 12 12 29 -3 10 -9 23 -17 28 -17 5 0 38 -20 74
-45 36 -25 70 -45 75 -44 13 0 -105 107 -126 114 -8 3 -51 39 -94 81 -44 41
-146 123 -228 182 -82 59 -170 126 -194 150 -25 23 -49 42 -54 42 -5 0 -9 4
-9 9 0 10 39 3 57 -11 7 -6 14 -4 20 7 7 12 14 6 34 -32 25 -45 60 -75 46 -39
-10 25 5 19 48 -21 22 -21 46 -38 54 -39 8 -2 18 -10 23 -18 5 -9 14 -16 19
-16 6 0 24 -9 40 -21 16 -11 29 -18 29 -15 0 15 -55 66 -72 66 -10 0 -19 8
-20 18 0 9 -2 22 -2 28 -2 17 -27 44 -36 39 -4 -3 -8 7 -8 20 1 14 4 25 9 25
14 0 10 20 -3 20 -7 0 -24 9 -38 20 -31 24 -41 25 -33 3 5 -14 1 -13 -25 6
-17 12 -35 27 -39 34 -25 38 -183 68 -169 32 7 -18 -1 -18 -33 -1 -14 8 -43
12 -65 10 l-41 -4 35 10 c30 9 106 17 185 20 11 0 49 -9 84 -20 35 -11 67 -17
72 -14 5 3 9 1 9 -4 0 -5 8 -12 18 -16 9 -3 24 -9 32 -13 35 -15 -13 27 -78
68 -37 24 -69 44 -71 46 -3 2 0 8 5 13 7 7 19 4 36 -10 15 -11 29 -20 32 -20
3 0 39 -23 81 -51 42 -29 78 -49 80 -47 3 3 -22 30 -55 60 -33 31 -60 61 -60
67 0 7 -6 11 -13 9 -6 -2 -36 21 -66 50 -67 64 -57 68 20 7 32 -25 62 -45 68
-45 6 0 11 -7 11 -15 0 -8 6 -12 14 -9 10 4 -7 25 -52 70 -37 35 -70 64 -73
64 -3 0 -15 8 -27 18 -73 61 -96 79 -124 94 -17 9 -58 39 -91 65 -66 53 -70
56 -182 130 l-78 52 -979 1 c-538 0 -978 -1 -978 -2 0 -2 7 -28 15 -58 19 -71
19 -93 0 -56 -8 15 -15 37 -15 47 0 10 -5 30 -12 44 -15 34 -65 36 -71 3 l-4
-23 -2 23 -1 22 -644 0 c-498 0 -646 -3 -649 -13 -4 -9 -6 -9 -6 1 -1 9 -56
12 -246 12 l-245 -1 0 -22 c0 -36 21 -101 35 -113 12 -9 13 -31 5 -79 -1 -5
-6 6 -10 25 -5 19 -18 70 -31 113 l-22 77 -149 0 -148 0 0 -207z m285 158 c-3
-12 -12 -18 -20 -15 -11 5 -11 9 3 24 19 23 26 19 17 -9z m3880 9 c3 -5 -1
-10 -10 -10 -9 0 -13 5 -10 10 3 6 8 10 10 10 2 0 7 -4 10 -10z m-3778 -42
c-3 -8 -6 -5 -6 6 -1 11 2 17 5 13 3 -3 4 -12 1 -19z m-154 -13 c-3 -9 -8 -14
-10 -11 -3 3 -2 9 2 15 9 16 15 13 8 -4z m59 -77 c2 -38 1 -68 -3 -68 -9 0
-19 142 -11 155 8 12 10 0 14 -87z m-207 52 c-3 -5 -14 -10 -24 -10 -9 0 -23
-6 -30 -12 -11 -11 -12 -10 -6 0 6 12 39 30 58 31 5 1 5 -3 2 -9z m4193 -30
c39 -7 72 -16 72 -21 0 -5 8 -9 18 -10 12 0 13 -2 3 -6 -17 -7 -211 39 -211
50 0 4 10 5 23 3 12 -3 55 -10 95 -16z m-3882 -125 c0 -18 -3 -32 -8 -29 -13
8 -8 64 6 64 1 0 1 -16 2 -35z m-55 -26 c-5 -26 -9 -34 -10 -19 -1 27 9 73 15
67 2 -2 0 -23 -5 -48z m-258 16 c-3 -9 -8 -14 -10 -11 -3 3 -2 9 2 15 9 16 15
13 8 -4z m224 -37 c-3 -8 -6 -5 -6 6 -1 11 2 17 5 13 3 -3 4 -12 1 -19z m-261
-35 c-8 -15 -15 -22 -16 -15 0 14 22 53 28 47 2 -2 -3 -16 -12 -32z m284 -35
c0 -51 -5 -47 -14 10 -4 29 -3 41 4 37 5 -3 10 -25 10 -47z m47 5 c-3 -10 -5
-2 -5 17 0 19 2 27 5 18 2 -10 2 -26 0 -35z m4233 17 c0 -5 -2 -10 -4 -10 -3
0 -8 5 -11 10 -3 6 -1 10 4 10 6 0 11 -4 11 -10z m-2536 -97 c-26 -48 -63
-104 -82 -123 -27 -27 -32 -29 -21 -10 9 14 33 54 54 90 21 36 42 67 45 70 4
3 15 20 24 38 10 19 20 31 23 28 3 -2 -16 -45 -43 -93z m-2020 72 c-4 -8 -11
-15 -16 -15 -6 0 -5 6 2 15 7 8 14 15 16 15 2 0 1 -7 -2 -15z m4501 -15 c3 -5
2 -10 -4 -10 -5 0 -13 5 -16 10 -3 6 -2 10 4 10 5 0 13 -4 16 -10z m-4238
-112 c-2 -18 -4 -6 -4 27 0 33 2 48 4 33 2 -15 2 -42 0 -60z m4301 54 c2 -7
-2 -10 -12 -6 -9 3 -16 11 -16 16 0 13 23 5 28 -10z m-4251 -69 c-2 -16 -4 -3
-4 27 0 30 2 43 4 28 2 -16 2 -40 0 -55z m102 17 c0 -9 -4 -8 -9 5 -5 11 -9
27 -9 35 0 9 4 8 9 -5 5 -11 9 -27 9 -35z m3459 -66 c20 -21 1 -17 -33 7 -27
19 -28 20 -5 13 13 -3 30 -13 38 -20z m72 -54 c0 -6 -9 -5 -20 2 -11 7 -20 16
-20 21 0 4 9 3 20 -3 11 -6 20 -15 20 -20z m545 8 c14 -6 25 -15 25 -20 0 -5
-13 -2 -30 7 -45 23 -41 34 5 13z m225 -70 c0 -6 -6 -5 -15 2 -8 7 -15 14 -15
16 0 2 7 1 15 -2 8 -4 15 -11 15 -16z m-4398 -38 c-2 -27 -8 -50 -12 -50 -5 0
-6 17 -4 38 11 76 21 84 16 12z m155 -27 c-3 -10 -5 -2 -5 17 0 19 2 27 5 18
2 -10 2 -26 0 -35z m160 25 c-3 -8 -6 -5 -6 6 -1 11 2 17 5 13 3 -3 4 -12 1
-19z m-10 -90 c-3 -7 -5 -2 -5 12 0 14 2 19 5 13 2 -7 2 -19 0 -25z m-330 -15
c-3 -10 -5 -4 -5 12 0 17 2 24 5 18 2 -7 2 -21 0 -30z m38 -60 c1 -32 5 -83 8
-113 l7 -55 -15 65 c-14 67 -20 178 -9 167 4 -4 8 -33 9 -64z m4264 20 c2 -2
-3 -3 -12 -3 -9 0 -29 12 -44 26 l-28 26 40 -23 c22 -12 42 -24 44 -26z
m-3988 -84 l-9 -34 -1 46 c-1 25 2 49 7 53 12 12 14 -29 3 -65z m-345 -74 c-8
-70 -17 -129 -20 -132 -9 -10 -7 34 9 142 8 55 15 106 15 114 0 8 2 12 6 9 3
-3 -2 -63 -10 -133z m251 18 c-3 -10 -5 -2 -5 17 0 19 2 27 5 18 2 -10 2 -26
0 -35z m3833 26 c0 -11 -3 -11 -24 -3 -23 9 -20 23 4 17 11 -3 20 -9 20 -14z
m-3793 -11 c-3 -8 -6 -5 -6 6 -1 11 2 17 5 13 3 -3 4 -12 1 -19z m-240 -10
c-3 -8 -6 -5 -6 6 -1 11 2 17 5 13 3 -3 4 -12 1 -19z m120 -10 c-3 -8 -6 -5
-6 6 -1 11 2 17 5 13 3 -3 4 -12 1 -19z m3203 -9 c0 -5 -7 -9 -15 -9 -15 0
-20 12 -9 23 8 8 24 -1 24 -14z m-3080 -9 c0 -11 -4 -20 -9 -20 -6 0 -9 9 -8
20 1 11 5 20 9 20 4 0 8 -9 8 -20z m-29 -45 c7 0 14 -6 17 -13 3 -11 0 -12
-16 -3 -15 8 -22 8 -25 -2 -3 -6 -6 2 -6 18 -1 23 2 26 9 15 5 -8 15 -15 21
-15z m-161 -69 c5 -21 5 -35 0 -30 -5 5 -11 32 -13 59 -3 28 -3 41 0 30 2 -11
8 -37 13 -59z m-63 52 c-3 -8 -6 -5 -6 6 -1 11 2 17 5 13 3 -3 4 -12 1 -19z
m3633 -27 c0 -6 -4 -13 -10 -16 -5 -3 -10 1 -10 9 0 9 5 16 10 16 6 0 10 -4
10 -9z m-3423 -53 c-3 -8 -6 -5 -6 6 -1 11 2 17 5 13 3 -3 4 -12 1 -19z m-140
-50 c-3 -7 -5 -2 -5 12 0 14 2 19 5 13 2 -7 2 -19 0 -25z m40 -5 c-3 -10 -5
-4 -5 12 0 17 2 24 5 18 2 -7 2 -21 0 -30z m-173 -43 c5 -33 3 -41 -4 -30 -8
11 -10 -18 -8 -102 2 -64 0 -111 -4 -105 -13 21 -6 301 7 285 1 -2 5 -23 9
-48z m47 -165 c-7 -170 -8 -182 -9 -80 -2 111 7 289 14 282 1 -1 -1 -92 -5
-202z m4201 182 c15 -12 15 -14 -3 -25 -26 -17 -29 -15 -29 13 0 28 7 30 32
12z m-832 -37 c0 -5 -2 -10 -4 -10 -3 0 -8 5 -11 10 -3 6 -1 10 4 10 6 0 11
-4 11 -10z m623 -16 c15 -15 23 -31 20 -38 -5 -7 -9 -5 -11 6 -2 9 -16 21 -33
27 -16 5 -29 15 -29 20 0 19 27 12 53 -15z m-3881 -109 c-8 -34 -9 -28 -6 35
1 41 3 77 5 80 8 15 8 -81 1 -115z m-145 -137 c-2 -18 -4 -6 -4 27 0 33 2 48
4 33 2 -15 2 -42 0 -60z m130 -25 c-2 -16 -4 -3 -4 27 0 30 2 43 4 28 2 -16 2
-40 0 -55z m-147 37 c0 -5 -4 -10 -10 -10 -5 0 -10 5 -10 10 0 6 5 10 10 10 6
0 10 -4 10 -10z m3530 -56 c11 -26 20 -51 20 -57 0 -6 6 -18 13 -26 21 -26 36
-67 28 -80 -5 -7 -21 20 -42 68 -18 43 -36 78 -39 76 -3 -2 -5 12 -6 31 0 19
1 34 2 34 2 0 12 -21 24 -46z m-3533 -41 c-2 -16 -4 -5 -4 22 0 28 2 40 4 28
2 -13 2 -35 0 -50z m30 -55 c-2 -13 -4 -5 -4 17 -1 22 1 32 4 23 2 -10 2 -28
0 -40z m103 -45 c-11 -17 -11 -17 -6 0 3 10 7 33 8 50 l1 32 4 -32 c2 -18 -1
-41 -7 -50z m-123 0 c-3 -10 -5 -2 -5 17 0 19 2 27 5 18 2 -10 2 -26 0 -35z
m98 -13 c-3 -5 -11 -10 -16 -10 -6 0 -7 5 -4 10 3 6 11 10 16 10 6 0 7 -4 4
-10z m-48 -37 c-3 -10 -5 -4 -5 12 0 17 2 24 5 18 2 -7 2 -21 0 -30z m3397
-16 c34 -74 103 -426 122 -617 3 -36 7 -236 9 -445 4 -350 20 -748 31 -766 2
-4 6 -43 9 -86 12 -230 41 -442 84 -611 11 -42 27 -110 36 -151 10 -41 31
-106 47 -145 17 -39 32 -83 35 -98 3 -16 10 -28 15 -28 5 0 6 -10 3 -21 -4
-13 -3 -19 3 -16 10 7 46 -70 43 -92 -1 -7 2 -10 7 -7 6 4 8 -3 4 -16 -3 -14
-2 -19 6 -14 7 4 12 1 12 -8 0 -9 4 -16 8 -16 5 0 15 -15 24 -32 24 -51 140
-207 197 -266 63 -65 66 -84 7 -42 -53 38 -176 204 -226 305 -8 17 -18 32 -21
35 -23 19 -137 293 -171 410 -45 152 -106 480 -128 680 -6 58 -15 139 -21 180
-5 41 -16 307 -24 590 -19 693 -29 833 -69 969 -7 25 -28 100 -46 166 -18 66
-35 127 -38 135 -3 12 -2 12 6 1 7 -10 11 -10 17 -1 4 6 0 19 -9 29 -18 20
-20 31 -6 31 6 0 21 -24 34 -53z m-3424 13 c-19 -12 -30 -12 -30 -1 0 10 31
20 40 14 2 -2 -2 -8 -10 -13z m167 -2 c-3 -8 -6 -5 -6 6 -1 11 2 17 5 13 3 -3
4 -12 1 -19z m3423 6 c0 -8 -4 -12 -10 -9 -5 3 -10 10 -10 16 0 5 5 9 10 9 6
0 10 -7 10 -16z m-3860 -68 c0 -3 -4 -8 -10 -11 -5 -3 -10 -1 -10 4 0 6 5 11
10 11 6 0 10 -2 10 -4z m5126 -99 c17 6 19 -13 2 -21 -7 -3 -4 -4 7 -3 16 2
21 -5 23 -28 l2 -30 -20 25 c-46 55 -50 60 -50 67 0 4 5 2 11 -4 6 -6 18 -9
25 -6z m-1246 -43 c0 -12 -2 -12 -14 -2 -8 7 -12 16 -9 21 7 11 23 -2 23 -19z
m-19 -26 c11 -21 11 -22 -4 -9 -10 7 -17 17 -17 22 0 15 9 10 21 -13z m1378
-53 c1 -6 -8 -11 -19 -12 -11 -1 -20 2 -20 7 0 5 -7 16 -16 24 -8 9 -12 20 -9
26 7 12 64 -28 64 -45z m-1119 15 c0 -5 -2 -10 -4 -10 -3 0 -8 5 -11 10 -3 6
-1 10 4 10 6 0 11 -4 11 -10z m-4073 -82 c-3 -8 -6 -5 -6 6 -1 11 2 17 5 13 3
-3 4 -12 1 -19z m3850 -173 c8 -22 -6 -33 -17 -15 -13 20 -12 30 0 30 6 0 13
-7 17 -15z m60 -159 c1 -20 -2 -25 -8 -15 -7 11 -9 11 -9 -3 0 -10 -5 -18 -10
-18 -18 0 -27 42 -17 70 9 25 12 25 26 11 9 -9 17 -29 18 -45z m-3833 -123
c-4 -16 -13 -39 -20 -53 l-14 -25 6 30 c9 41 22 75 29 75 3 0 2 -12 -1 -27z
m4166 -28 c5 3 10 -3 10 -14 0 -27 -22 -27 -45 -1 -15 17 -16 22 -4 36 12 14
14 14 21 -6 4 -12 12 -18 18 -15z m-61 -120 c-1 -22 -3 -31 -6 -20 -2 11 -6
30 -9 43 -3 15 -9 20 -17 15 -7 -4 -6 0 2 11 19 23 31 4 30 -49z m-4052 13
c-3 -8 -6 -5 -6 6 -1 11 2 17 5 13 3 -3 4 -12 1 -19z m4055 -126 c-6 -2 -12
-13 -12 -25 0 -18 -2 -19 -10 -7 -8 14 -4 53 8 74 3 6 10 -1 16 -14 8 -17 7
-25 -2 -28z m-3945 -104 c-3 -8 -6 -5 -6 6 -1 11 2 17 5 13 3 -3 4 -12 1 -19z
m3900 -200 c-3 -8 -6 -5 -6 6 -1 11 2 17 5 13 3 -3 4 -12 1 -19z m109 -60 c-1
-16 5 -24 20 -26 18 -3 23 -12 28 -61 6 -54 9 -59 42 -75 25 -11 34 -21 30
-32 -3 -9 -6 -22 -6 -30 0 -11 -6 -13 -20 -9 -18 6 -20 3 -18 -29 3 -46 -6
-53 -33 -27 -12 11 -19 24 -16 28 4 3 7 1 7 -5 0 -7 5 -12 10 -12 7 0 8 14 4
38 -9 49 -24 65 -24 24 0 -39 -15 -42 -25 -4 -7 27 -7 27 -17 5 -6 -12 -20
-23 -31 -25 -31 -4 -32 -26 -2 -34 20 -5 23 -9 14 -20 -15 -18 -43 -18 -36 -1
3 7 -4 19 -14 25 -16 10 -19 9 -19 -3 0 -26 -28 -16 -35 13 -3 15 -14 35 -22
45 -15 16 -15 17 2 17 14 0 15 3 5 15 -7 9 -10 18 -8 21 10 9 58 -8 58 -20 0
-7 11 -18 24 -26 21 -11 27 -10 41 4 16 15 14 16 -17 14 l-33 -3 1 53 c1 28
-2 52 -7 52 -5 0 -9 5 -9 10 0 6 12 9 28 8 19 -2 26 1 24 11 -6 27 8 58 30 69
13 6 23 11 24 11 0 1 0 -9 0 -21z m131 -60 c-3 -8 -6 -5 -6 6 -1 11 2 17 5 13
3 -3 4 -12 1 -19z m-485 -28 c-5 -43 -16 -42 -28 4 -6 24 -4 27 12 24 13 -3
18 -11 16 -28z m168 -10 c0 -5 -7 -10 -15 -10 -8 0 -15 5 -15 10 0 6 7 10 15
10 8 0 15 -4 15 -10z m283 -33 c-3 -4 -11 -3 -19 4 -7 6 -11 15 -8 20 3 5 11
3 18 -4 8 -6 12 -16 9 -20z m-213 13 c12 -8 11 -10 -7 -10 -13 0 -23 5 -23 10
0 13 11 13 30 0z m-70 -10 c0 -5 -2 -10 -4 -10 -3 0 -8 5 -11 10 -3 6 -1 10 4
10 6 0 11 -4 11 -10z m805 -60 c1 -10 -2 -17 -7 -14 -4 3 -8 15 -8 26 0 26 13
15 15 -12z m-915 -31 c0 -22 -3 -38 -8 -36 -4 3 -6 20 -5 39 2 39 2 38 8 38 3
0 5 -18 5 -41z m-43 -61 c-3 -7 -5 -2 -5 12 0 14 2 19 5 13 2 -7 2 -19 0 -25z
m70 -15 c-3 -3 -11 -2 -17 2 -9 6 -9 10 1 16 14 8 27 -7 16 -18z m219 -34 c3
-5 -2 -9 -10 -9 -8 0 -21 -10 -27 -22 l-12 -22 -9 24 c-5 13 -7 29 -4 36 5 13
53 7 62 -7z m-216 -19 c0 -5 -5 -10 -11 -10 -5 0 -7 5 -4 10 3 6 8 10 11 10 2
0 4 -4 4 -10z m-3903 -107 c-2 -16 -4 -5 -4 22 0 28 2 40 4 28 2 -13 2 -35 0
-50z m4828 -33 c-10 -11 -21 -18 -23 -15 -3 3 3 12 14 20 27 20 30 18 9 -5z
m-1050 -20 c3 -5 1 -10 -4 -10 -6 0 -11 5 -11 10 0 6 2 10 4 10 3 0 8 -4 11
-10z m1075 -16 c0 -8 -5 -12 -10 -9 -6 4 -8 11 -5 16 9 14 15 11 15 -7z
m-4813 -36 c-3 -8 -6 -5 -6 6 -1 11 2 17 5 13 3 -3 4 -12 1 -19z m-37 -40 c0
-20 -15 -24 -25 -8 -3 6 -1 10 5 10 7 0 9 9 5 23 -5 17 -4 19 4 7 6 -8 11 -23
11 -32z m-11 -70 c-12 -44 -33 -63 -24 -23 10 47 14 55 24 55 6 0 6 -12 0 -32z
m10 -47 c-5 -22 -15 -59 -23 -83 -27 -82 -31 -267 -5 -226 5 7 6 -17 2 -55 -4
-45 -2 -67 4 -65 14 4 54 -42 47 -53 -3 -5 0 -9 5 -9 6 0 11 -8 11 -18 0 -10
9 -35 20 -57 11 -22 20 -45 20 -52 0 -7 4 -13 10 -13 5 0 16 -15 23 -32 8 -18
25 -39 39 -47 14 -7 31 -23 38 -35 13 -23 108 -102 120 -99 4 1 21 -10 36 -25
16 -14 32 -25 37 -24 4 1 7 -2 7 -7 0 -5 12 -17 27 -26 25 -17 26 -17 19 0 -5
14 -4 16 7 7 8 -7 17 -10 20 -7 4 3 5 2 2 -2 -9 -12 17 -33 41 -33 33 0 30
-22 -5 -41 -16 -10 -29 -23 -28 -30 1 -33 -5 -45 -28 -56 -15 -6 -25 -7 -25
-1 0 5 -4 6 -10 3 -13 -8 -13 -65 -1 -65 6 0 13 5 16 10 12 19 34 10 49 -18 8
-16 34 -76 56 -133 23 -57 47 -117 54 -134 7 -16 19 -46 26 -65 7 -19 24 -60
37 -90 30 -65 30 -64 -94 -111 -46 -18 -86 -36 -89 -41 -7 -11 26 -98 38 -98
5 0 26 9 48 20 57 29 149 62 161 58 5 -2 34 -62 63 -133 29 -72 65 -156 80
-189 14 -32 26 -66 26 -76 0 -9 11 -39 25 -66 13 -27 39 -85 56 -129 17 -44
37 -94 45 -112 8 -17 14 -37 14 -45 0 -7 6 -23 14 -34 23 -32 46 -132 32 -138
-6 -2 -2 -5 10 -5 15 -1 24 -11 32 -38 6 -20 9 -40 6 -45 -3 -4 0 -8 6 -8 6 0
16 -11 22 -25 15 -33 39 -32 110 3 53 27 55 29 36 41 -18 11 -20 11 -15 -3 11
-27 0 -18 -23 20 -11 20 -19 43 -16 50 3 7 -2 15 -10 18 -8 3 -24 27 -35 53
-11 27 -35 80 -53 118 -64 133 -88 190 -113 259 -14 38 -33 83 -44 100 -39 65
-123 253 -135 301 -4 17 -17 51 -30 77 l-24 47 22 15 c12 9 30 16 40 16 9 0
19 4 22 9 3 5 16 11 29 15 13 3 40 12 61 21 l37 16 -20 33 c-12 18 -21 41 -21
50 0 20 -3 20 -49 -4 -35 -18 -97 -42 -143 -57 -14 -4 -24 9 -47 58 -16 35
-32 75 -36 89 -4 14 -27 75 -52 135 -82 202 -97 253 -82 281 7 14 18 23 25 20
7 -3 32 5 56 18 32 17 42 29 41 45 -3 26 11 27 35 3 13 -13 29 -18 51 -14 24
3 30 1 26 -10 -4 -10 6 -18 34 -27 22 -6 53 -23 69 -36 17 -14 35 -25 41 -25
6 0 16 -12 21 -26 13 -34 13 -35 -13 -29 -21 6 -23 3 -23 -39 0 -31 5 -46 13
-46 17 0 17 -37 1 -43 -8 -3 -6 -6 4 -6 22 -1 68 -44 68 -63 0 -17 29 -58 30
-42 0 7 11 9 25 6 19 -3 25 -11 25 -29 0 -18 4 -23 14 -20 12 5 12 0 5 -26 -5
-20 -5 -35 1 -41 7 -7 10 -4 10 8 0 27 25 13 26 -15 1 -14 9 -37 18 -51 11
-18 14 -28 6 -33 -6 -3 -7 -11 -4 -17 4 -6 10 -5 15 3 6 10 9 6 9 -13 0 -18 5
-28 14 -28 10 0 14 -9 13 -27 -2 -24 2 -28 26 -28 15 1 27 -3 27 -7 0 -4 -4
-8 -9 -8 -5 0 -10 -15 -9 -32 0 -55 6 -66 33 -60 29 5 33 -12 8 -28 -15 -10
-14 -11 10 -7 15 2 27 1 27 -3 0 -4 9 -11 21 -16 19 -9 20 -11 5 -23 -14 -11
-16 -11 -16 3 0 9 -4 16 -10 16 -5 0 -10 -21 -10 -47 1 -41 2 -45 12 -28 13
22 28 35 43 35 6 0 5 -4 -2 -8 -16 -10 -20 -44 -5 -49 6 -3 12 2 12 11 0 9 7
16 15 16 19 0 19 -14 -1 -56 -9 -19 -14 -37 -11 -41 10 -10 37 18 37 38 0 11
5 19 11 19 7 0 9 -9 6 -22 -9 -39 -17 -104 -11 -90 3 6 13 12 21 12 13 0 13
-3 2 -16 -11 -13 -9 -14 13 -9 l26 7 -3 -66 c-2 -60 0 -66 16 -61 11 4 19 -1
23 -13 5 -15 14 -18 37 -16 29 4 30 3 24 -34 -4 -24 -3 -32 3 -24 7 10 15 4
33 -25 13 -21 24 -47 24 -58 0 -12 7 -20 17 -20 21 0 64 -54 60 -76 -4 -24 26
-32 33 -8 8 25 18 24 31 -5 9 -20 9 -23 -2 -19 -8 3 -14 -1 -14 -11 0 -10 6
-13 15 -10 8 4 15 1 15 -5 0 -6 7 -8 16 -4 10 4 20 0 26 -10 4 -9 15 -14 23
-11 8 4 15 2 15 -2 0 -10 -111 -64 -130 -64 -6 0 -28 -9 -48 -19 -20 -11 -75
-38 -122 -60 -47 -22 -130 -62 -185 -88 -55 -26 -107 -48 -115 -49 -8 0 -28
-6 -43 -13 -16 -6 -34 -11 -42 -11 -8 0 -16 -4 -20 -10 -3 -5 -20 -14 -38 -19
-42 -13 -148 -50 -167 -58 -8 -3 -23 -8 -33 -10 -10 -1 -42 -14 -71 -28 -29
-14 -60 -25 -68 -25 -9 0 -21 -7 -28 -15 -7 -8 -24 -15 -39 -15 -14 0 -40 -8
-56 -19 -17 -10 -44 -20 -60 -23 -17 -3 -52 -15 -80 -26 -27 -11 -111 -44
-185 -73 -74 -29 -144 -59 -155 -66 -11 -7 -23 -13 -27 -13 -19 0 -5 74 26
141 19 41 51 115 71 164 21 50 50 117 65 150 16 33 40 87 55 119 l27 60 62
-65 c35 -35 97 -93 139 -128 43 -35 77 -68 77 -73 0 -4 9 -8 19 -8 11 0 23 -5
26 -10 15 -24 88 -52 121 -45 19 3 34 9 34 13 0 4 -21 15 -46 26 -85 35 -199
118 -294 215 -129 130 -129 131 -102 235 25 95 28 208 11 351 -24 195 -72 321
-178 463 -67 91 -68 93 -29 182 50 114 73 157 95 188 13 17 22 32 19 32 -4 0
3 9 14 20 14 14 20 33 20 63 l-1 42 -39 -45 c-55 -64 -112 -163 -146 -253 -16
-42 -32 -77 -37 -77 -5 0 -31 20 -59 45 -55 49 -163 105 -206 105 -49 0 -54
10 -43 81 14 84 13 102 -4 59 -11 -28 -14 -30 -14 -12 -1 12 9 32 21 44 31 31
44 170 62 658 16 413 19 455 36 445 5 -3 12 7 15 22 8 33 23 73 29 73 2 0 0
-18 -5 -39z m4988 -133 c-3 -8 -6 -5 -6 6 -1 11 2 17 5 13 3 -3 4 -12 1 -19z
m-4993 -146 c4 -7 2 -12 -3 -12 -6 0 -11 5 -11 11 0 5 -4 7 -10 4 -12 -7 -12
1 -3 46 l7 34 6 -35 c3 -20 10 -41 14 -48z m5036 14 c0 -2 -3 -11 -6 -20 -9
-23 -24 -20 -24 4 0 11 7 20 15 20 8 0 15 -2 15 -4z m-5002 -96 c0 -22 -1 -22
-8 5 -4 17 -8 41 -8 55 0 22 1 22 8 -5 4 -16 8 -41 8 -55z m-35 5 c4 -8 2 -17
-3 -20 -6 -4 -10 3 -10 14 0 25 6 27 13 6z m537 -204 c0 -10 9 -21 20 -24 12
-3 20 -14 20 -25 0 -26 18 -38 33 -23 18 18 30 13 24 -10 -3 -12 -1 -33 5 -48
23 -59 3 -136 -28 -110 -8 6 -14 20 -14 30 0 10 -4 20 -9 23 -17 11 -63 117
-57 132 3 8 2 12 -4 9 -6 -4 -10 9 -10 29 0 20 5 36 10 36 6 0 10 -8 10 -19z
m4337 -33 c-3 -7 -5 -2 -5 12 0 14 2 19 5 13 2 -7 2 -19 0 -25z m-4187 -79 c0
-5 -4 -9 -10 -9 -5 0 -10 7 -10 16 0 8 5 12 10 9 6 -3 10 -10 10 -16z m4170
12 c0 -5 3 -16 6 -25 4 -11 1 -16 -10 -16 -10 0 -16 9 -16 25 0 14 5 25 10 25
6 0 10 -4 10 -9z m-1343 -288 c8 -11 30 -17 58 -19 31 -1 53 -8 69 -23 12 -11
27 -21 34 -21 6 0 16 -8 21 -17 9 -15 12 -16 20 -4 8 12 11 9 16 -12 4 -15 11
-24 17 -21 5 3 15 1 22 -5 7 -6 34 -12 59 -13 42 -2 46 -4 41 -24 -4 -17 0
-22 20 -26 14 -3 26 -1 26 3 0 23 20 5 21 -18 1 -23 2 -24 6 -6 3 14 11 21 24
20 10 -1 19 -5 19 -9 0 -14 43 -58 57 -58 7 0 13 -4 13 -8 0 -5 11 -15 25 -22
14 -7 25 -19 25 -26 0 -6 8 -11 18 -10 12 1 17 -6 16 -21 0 -13 1 -21 4 -18 7
6 52 -63 52 -80 0 -8 5 -17 11 -20 17 -11 31 -57 36 -120 3 -33 11 -71 17 -85
7 -14 18 -44 26 -67 7 -23 17 -40 21 -37 5 3 7 -1 4 -8 -6 -15 28 -52 107
-115 60 -47 108 -124 108 -172 0 -23 -9 -29 -63 -50 -107 -41 -292 -124 -299
-135 -4 -6 -8 -7 -8 -2 0 5 -6 4 -13 -2 -7 -6 -22 -9 -34 -6 -11 3 -27 -1 -36
-10 -8 -9 -22 -16 -29 -16 -10 0 -9 3 2 10 11 7 12 12 3 21 -15 15 -34 3 -26
-17 4 -10 -2 -17 -16 -21 -11 -3 -21 -12 -21 -19 0 -8 -7 -14 -15 -14 -8 0
-15 5 -15 12 0 9 -3 9 -12 0 -15 -15 -32 -16 -23 -2 3 6 1 10 -4 10 -6 0 -11
4 -11 10 0 5 5 9 11 7 14 -3 35 30 25 40 -4 4 -12 0 -17 -10 -13 -23 -41 -22
-57 3 -10 17 -10 23 3 36 18 19 19 25 3 23 -28 -3 -132 4 -115 8 43 11 12 27
-103 53 -36 7 -22 9 75 6 71 -2 130 -8 144 -15 18 -10 26 -10 35 -1 14 14 -18
42 -40 33 -10 -3 -14 3 -14 20 0 14 -7 27 -15 31 -8 3 -15 1 -15 -5 0 -6 -6
-6 -18 0 -13 7 -23 6 -30 -1 -20 -20 -13 2 8 24 21 23 17 46 -6 27 -11 -9 -15
-8 -20 5 -3 9 -13 16 -21 16 -8 0 -11 5 -7 11 3 6 2 21 -4 32 -20 45 -35 131
-23 135 16 5 14 22 -3 22 -8 0 -18 9 -21 20 -3 11 -11 20 -16 20 -6 0 -7 9 -4
21 5 15 4 19 -4 15 -6 -4 -24 5 -41 20 -25 24 -27 29 -13 39 13 10 12 14 -11
28 -14 10 -26 24 -26 31 0 7 -6 19 -14 25 -7 6 -16 30 -20 52 -5 31 -10 40
-22 35 -12 -4 -12 -2 -4 14 6 11 15 20 21 20 6 0 7 5 4 10 -4 6 -11 7 -17 4
-7 -5 -9 2 -4 20 6 23 3 29 -14 33 -23 6 -27 23 -5 23 19 0 19 14 0 30 -8 6
-13 22 -12 33 1 13 -4 22 -13 22 -10 0 -15 11 -16 31 0 16 -3 35 -7 41 -4 6
-5 17 -2 25 3 8 -4 24 -16 36 -11 13 -18 30 -15 38 3 8 -1 17 -9 20 -21 8 -19
24 3 24 12 0 14 2 4 8 -16 11 -6 39 19 53 11 5 19 16 19 24 0 12 6 12 28 4 15
-5 33 -17 39 -26z m1509 -163 c8 -30 26 -98 39 -150 13 -52 33 -122 44 -154
12 -33 19 -61 17 -63 -2 -2 -11 15 -19 39 -9 24 -25 70 -37 103 -31 85 -80
309 -79 358 1 39 2 37 11 -18 5 -33 16 -85 24 -115z m-5141 48 c-8 -59 -25
-89 -25 -43 0 27 20 95 28 95 2 0 1 -24 -3 -52z m4515 -379 c0 -6 -4 -7 -10
-4 -5 3 -10 11 -10 16 0 6 5 7 10 4 6 -3 10 -11 10 -16z m520 -295 c122 -79
190 -134 190 -154 0 -17 -8 -11 -66 45 -68 66 -90 72 -40 11 20 -24 36 -50 36
-57 0 -7 -15 5 -32 27 -79 93 -116 128 -190 176 -43 28 -78 52 -78 54 0 10 67
-28 180 -102z m-5060 25 c0 -5 -4 -9 -10 -9 -5 0 -10 7 -10 16 0 8 5 12 10 9
6 -3 10 -10 10 -16z m1505 -89 c3 -5 1 -10 -4 -10 -6 0 -11 5 -11 10 0 6 2 10
4 10 3 0 8 -4 11 -10z m3793 -72 c-2 -6 -10 -14 -16 -16 -7 -2 -10 2 -6 12 7
18 28 22 22 4z m-208 -77 c0 -5 9 -7 20 -4 11 3 20 0 20 -6 0 -6 -15 -11 -34
-11 -21 0 -36 -6 -40 -15 -3 -8 -15 -15 -26 -15 -11 0 -20 -4 -20 -10 0 -5 -4
-10 -9 -10 -5 0 -8 8 -7 18 1 13 -6 17 -31 16 -55 -3 -14 23 53 34 33 5 62 10
67 11 4 0 7 -3 7 -8z m-3435 -70 c-8 -13 -35 -15 -35 -2 0 5 8 11 18 13 21 5
26 2 17 -11z m15 -89 c0 -13 -12 -22 -22 -16 -10 6 -1 24 13 24 5 0 9 -4 9 -8z
m-23 -54 c-3 -8 -6 -5 -6 6 -1 11 2 17 5 13 3 -3 4 -12 1 -19z m3341 -36 c-10
-2 -18 -8 -18 -13 0 -6 -5 -7 -10 -4 -17 11 9 35 28 27 16 -6 16 -7 0 -10z
m27 -22 c3 -5 1 -10 -4 -10 -6 0 -11 5 -11 10 0 6 2 10 4 10 3 0 8 -4 11 -10z
m-1116 -74 c9 -11 5 -20 -19 -44 -16 -17 -30 -40 -30 -51 0 -16 -6 -21 -29
-21 -23 0 -30 5 -33 25 -6 27 14 51 32 40 8 -5 8 -11 -1 -21 -6 -8 -9 -17 -6
-20 9 -9 28 6 22 17 -4 5 -1 9 6 9 9 0 9 3 0 14 -15 18 -4 45 23 56 12 5 22 9
22 9 1 1 7 -5 13 -13z m88 0 c0 0 3 -10 5 -20 2 -14 -4 -22 -22 -26 -40 -10
-62 -1 -54 24 9 27 24 37 49 30 11 -4 21 -7 22 -8z m553 -37 c86 -30 111 -57
118 -131 4 -44 3 -48 -16 -48 -15 0 -20 -5 -16 -15 4 -8 1 -15 -5 -15 -6 0
-11 -6 -11 -12 0 -22 -44 -64 -75 -73 -16 -5 -63 -9 -103 -10 -40 -1 -78 -7
-84 -13 -7 -7 -22 -12 -34 -12 -13 0 -25 -4 -28 -9 -4 -5 4 -7 16 -3 15 3 19
2 14 -7 -10 -15 -74 -4 -98 17 -11 9 -28 13 -45 9 -41 -8 -83 3 -84 22 -1 9
-6 -1 -11 -22 -12 -44 -36 -54 -96 -38 -53 15 -76 66 -63 138 7 37 6 52 -4 63
-16 18 -9 94 7 84 5 -3 7 -11 5 -17 -3 -7 4 -22 15 -34 20 -21 20 -21 39 -2
11 11 23 18 28 15 4 -3 8 1 8 9 0 11 -4 12 -14 4 -10 -9 -13 -7 -13 7 0 21 35
48 50 39 6 -4 10 -1 10 4 0 6 12 10 28 10 23 -2 24 -2 5 -6 -36 -7 -27 -23 12
-23 19 0 35 5 35 10 0 6 -6 10 -12 10 -9 0 -8 4 2 10 22 14 29 12 23 -9 -3
-11 2 -21 11 -24 9 -4 16 -13 16 -22 0 -8 5 -15 10 -15 14 0 12 37 -2 44 -7 3
-2 3 10 0 17 -4 30 1 44 16 11 12 26 19 34 16 8 -3 23 3 34 14 15 15 25 17 48
11 26 -8 29 -6 25 9 -3 13 3 20 24 27 27 9 47 6 143 -28z m-562 -55 c-3 -14
-5 -12 -10 9 -3 19 -2 25 4 19 6 -6 8 -18 6 -28z m-133 -60 c10 3 15 -1 15
-14 0 -10 -9 -21 -19 -25 -13 -4 -18 -12 -14 -22 5 -13 3 -13 -15 -4 -26 14
-31 30 -19 58 8 18 13 20 23 12 8 -6 21 -9 29 -5z m-84 -35 c11 -17 11 -29 2
-30 -5 0 -17 -2 -28 -4 -21 -4 -35 10 -35 37 0 20 48 18 61 -3z m149 -41 c0
-7 -4 -18 -8 -25 -11 -17 -36 1 -29 21 7 19 37 22 37 4z m511 -162 c-14 -15
-29 -22 -42 -19 -30 8 -33 23 -5 23 14 0 28 5 31 10 3 6 13 10 22 10 13 0 12
-4 -6 -24z m-252 -10 c9 -11 5 -16 -21 -25 -28 -10 -35 -9 -52 9 -16 16 -17
20 -5 20 8 0 20 -5 26 -11 13 -13 36 -3 28 12 -10 14 11 11 24 -5z m3961 -116
c0 -5 -9 -10 -20 -10 -11 0 -20 5 -20 10 0 6 9 10 20 10 11 0 20 -4 20 -10z
m-4695 -130 c3 -5 1 -10 -4 -10 -6 0 -11 5 -11 10 0 6 2 10 4 10 3 0 8 -4 11
-10z m-46 -4 c-2 -2 -26 -6 -54 -10 -34 -4 -43 -3 -30 3 19 9 93 15 84 7z
m551 -46 c71 -76 88 -207 32 -250 -13 -11 -31 -20 -40 -20 -8 0 -23 -9 -32
-20 -10 -12 -34 -22 -56 -25 -22 -2 -73 -8 -114 -14 -111 -14 -231 -15 -263
-2 -35 14 -50 14 -64 0 -18 -18 -88 -1 -120 29 -17 15 -35 42 -41 61 -15 44
-15 143 0 192 9 33 15 39 39 39 20 0 27 4 23 14 -6 16 24 26 78 26 29 0 36 -3
32 -15 -4 -8 -2 -15 4 -15 16 0 26 -72 10 -81 -11 -7 -11 -9 0 -9 8 0 16 9 19
20 6 21 26 29 21 8 -2 -7 2 -13 7 -13 5 0 9 7 8 15 -2 10 0 11 3 2 3 -6 10
-10 15 -7 5 4 6 -2 2 -11 -4 -12 -2 -15 8 -12 8 2 15 14 17 26 2 12 8 22 13
22 5 0 9 8 10 18 1 11 4 9 9 -8 8 -25 8 -25 9 -2 1 13 4 22 9 20 4 -3 22 -11
40 -18 17 -8 32 -20 32 -28 0 -9 7 -11 20 -7 13 4 20 2 20 -7 0 -21 54 -17 58
5 2 10 -3 17 -11 17 -8 0 -17 9 -20 21 -7 26 17 36 47 20 19 -11 29 -9 64 9
23 12 42 26 42 31 0 22 36 6 70 -31z m-406 15 c11 -8 14 -15 8 -15 -7 0 -12
-8 -12 -17 -1 -14 -4 -12 -15 7 l-14 25 -1 -28 c0 -18 -5 -27 -12 -25 -13 5
-20 46 -11 61 7 12 36 8 57 -8z m134 -56 c-3 -20 -5 -19 -9 9 -3 20 -2 29 4
23 5 -5 7 -19 5 -32z m-228 -309 c0 -5 -4 -10 -9 -10 -6 0 -13 5 -16 10 -3 6
1 10 9 10 9 0 16 -4 16 -10z m577 -46 c-3 -3 -12 -4 -19 -1 -8 3 -5 6 6 6 11
1 17 -2 13 -5z m4066 -1211 c-7 -2 -19 -2 -25 0 -7 3 -2 5 12 5 14 0 19 -2 13
-5z m-678 -581 c-3 -3 -11 0 -18 7 -9 10 -8 11 6 5 10 -3 15 -9 12 -12z
m-5668 -214 c-3 -8 -6 -5 -6 6 -1 11 2 17 5 13 3 -3 4 -12 1 -19z"/>
<path d="M3741 10894 c0 -11 3 -14 6 -6 3 7 2 16 -1 19 -3 4 -6 -2 -5 -13z"/>
<path d="M4345 9510 c3 -5 8 -10 11 -10 2 0 4 5 4 10 0 6 -5 10 -11 10 -5 0
-7 -4 -4 -10z"/>
<path d="M4285 9460 c3 -5 8 -10 11 -10 2 0 4 5 4 10 0 6 -5 10 -11 10 -5 0
-7 -4 -4 -10z"/>
<path d="M1230 7470 c0 -5 5 -10 10 -10 6 0 10 5 10 10 0 6 -4 10 -10 10 -5 0
-10 -4 -10 -10z"/>
<path d="M1420 6755 c0 -11 28 -35 40 -35 21 0 5 35 -18 38 -12 2 -22 1 -22
-3z"/>
<path d="M1337 6743 c-13 -12 -7 -25 8 -19 10 4 15 -1 15 -14 0 -11 7 -20 15
-20 14 0 14 2 0 23 -8 13 -12 27 -8 30 3 4 0 7 -9 7 -8 0 -18 -3 -21 -7z"/>
<path d="M1214 6706 c-15 -12 -17 -17 -6 -28 15 -15 45 0 50 26 4 20 -18 21
-44 2z"/>
<path d="M1419 6667 c6 -8 8 -17 4 -20 -3 -4 -1 -7 5 -7 7 0 12 9 12 20 0 12
-7 20 -16 20 -13 0 -14 -3 -5 -13z"/>
<path d="M1360 6649 c0 -5 5 -7 10 -4 6 3 10 8 10 11 0 2 -4 4 -10 4 -5 0 -10
-5 -10 -11z"/>
<path d="M1477 6608 c8 -57 13 -61 13 -10 0 22 -4 43 -9 46 -5 4 -7 -12 -4
-36z"/>
<path d="M1538 6563 c7 -3 16 -2 19 1 4 3 -2 6 -13 5 -11 0 -14 -3 -6 -6z"/>
<path d="M1536 6541 c-4 -7 -5 -15 -2 -18 9 -9 19 4 14 18 -4 11 -6 11 -12 0z"/>
<path d="M1590 6511 c0 -12 5 -21 10 -21 6 0 10 6 10 14 0 8 -4 18 -10 21 -5
3 -10 -3 -10 -14z"/>
<path d="M893 6476 c0 -8 6 -12 14 -9 7 3 10 9 7 14 -8 14 -21 11 -21 -5z"/>
<path d="M1583 6453 c-9 -18 -10 -30 -2 -39 7 -8 6 -13 -2 -16 -7 -2 -10 -11
-7 -18 8 -26 29 27 26 65 l-3 35 -12 -27z"/>
<path d="M1635 6461 c-3 -6 -1 -20 5 -31 9 -16 8 -20 -5 -20 -9 0 -16 -10 -17
-27 -3 -69 -5 -84 -12 -90 -3 -3 -6 2 -6 13 0 15 -4 12 -15 -10 -19 -36 -19
-56 0 -56 8 0 15 8 15 18 0 13 2 14 9 3 5 -8 5 -26 -1 -43 -6 -15 -7 -40 -4
-54 5 -19 4 -24 -6 -18 -10 5 -10 4 0 -7 11 -12 15 -11 27 5 8 10 19 15 25 11
14 -9 122 44 114 56 -3 5 -1 17 5 27 5 10 6 24 1 31 -6 11 -12 9 -26 -8 -10
-11 -25 -21 -32 -21 -11 0 -11 6 3 27 25 38 25 101 0 120 -11 8 -20 17 -19 21
1 14 -55 62 -61 53z m100 -241 c-3 -5 -10 -10 -16 -10 -5 0 -9 5 -9 10 0 6 7
10 16 10 8 0 12 -4 9 -10z"/>
<path d="M1406 6262 c-3 -3 -6 -14 -6 -24 0 -20 19 -25 21 -5 1 6 4 2 7 -9 5
-16 10 -19 17 -10 7 7 3 18 -12 32 -12 12 -24 19 -27 16z"/>
<path d="M1567 6213 c-11 -10 -8 -43 3 -43 6 0 10 11 10 25 0 26 -2 29 -13 18z"/>
<path d="M1441 6186 c12 -10 79 -16 79 -6 0 5 -19 10 -42 10 -23 0 -39 -2 -37
-4z"/>
<path d="M1120 6155 c0 -8 -5 -14 -12 -12 -6 1 -14 -7 -16 -17 -3 -14 0 -17
12 -13 9 4 16 1 16 -6 0 -8 15 -12 40 -12 46 0 56 22 13 27 -19 2 -28 8 -27
20 1 9 -5 19 -12 22 -8 3 -14 -1 -14 -9z"/>
<path d="M1225 6090 c-3 -5 1 -10 9 -10 9 0 16 5 16 10 0 6 -4 10 -9 10 -6 0
-13 -4 -16 -10z"/>
<path d="M1112 6055 c0 -16 2 -22 5 -12 2 9 2 23 0 30 -3 6 -5 -1 -5 -18z"/>
<path d="M1224 6015 c3 -8 1 -15 -4 -15 -6 0 -10 -4 -10 -10 0 -5 7 -10 15
-10 8 0 15 4 15 9 0 5 3 16 6 25 4 11 1 16 -11 16 -11 0 -15 -5 -11 -15z"/>
<path d="M1067 5999 c-3 -12 -1 -19 5 -17 13 5 20 38 8 38 -4 0 -10 -9 -13
-21z"/>
<path d="M1142 6008 c3 -7 15 -14 29 -16 24 -4 24 -3 4 12 -24 19 -38 20 -33
4z"/>
<path d="M1017 5979 c7 -7 15 -10 18 -7 3 3 -2 9 -12 12 -14 6 -15 5 -6 -5z"/>
<path d="M1118 5973 c6 -2 18 -2 25 0 6 3 1 5 -13 5 -14 0 -19 -2 -12 -5z"/>
<path d="M791 5954 c0 -11 3 -14 6 -6 3 7 2 16 -1 19 -3 4 -6 -2 -5 -13z"/>
<path d="M898 5903 c-9 -2 -19 -11 -22 -19 -4 -12 -2 -12 14 -4 15 8 40 33 28
29 -2 -1 -10 -3 -20 -6z"/>
<path d="M930 5880 c-13 -9 -13 -10 0 -10 8 0 22 5 30 10 13 9 13 10 0 10 -8
0 -22 -5 -30 -10z"/>
<path d="M721 5854 c0 -11 3 -14 6 -6 3 7 2 16 -1 19 -3 4 -6 -2 -5 -13z"/>
<path d="M640 5759 c0 -5 5 -7 10 -4 6 3 10 8 10 11 0 2 -4 4 -10 4 -5 0 -10
-5 -10 -11z"/>
<path d="M3610 7810 c0 -5 5 -10 10 -10 6 0 10 5 10 10 0 6 -4 10 -10 10 -5 0
-10 -4 -10 -10z"/>
<path d="M3950 6990 c0 -5 5 -10 11 -10 5 0 7 5 4 10 -3 6 -8 10 -11 10 -2 0
-4 -4 -4 -10z"/>
<path d="M4155 6649 c-9 -14 -2 -20 14 -10 8 6 9 11 3 15 -6 3 -14 1 -17 -5z"/>
<path d="M4311 6414 c0 -11 3 -14 6 -6 3 7 2 16 -1 19 -3 4 -6 -2 -5 -13z"/>
<path d="M4071 6384 c0 -11 3 -14 6 -6 3 7 2 16 -1 19 -3 4 -6 -2 -5 -13z"/>
<path d="M4226 6391 c-4 -7 -5 -15 -2 -18 9 -9 19 4 14 18 -4 11 -6 11 -12 0z"/>
<path d="M4250 6388 c0 -9 5 -20 10 -23 13 -8 13 5 0 25 -8 13 -10 13 -10 -2z"/>
<path d="M3950 6365 c0 -8 5 -15 10 -15 6 0 10 7 10 15 0 8 -4 15 -10 15 -5 0
-10 -7 -10 -15z"/>
<path d="M4027 6352 c-7 -10 29 -53 37 -45 3 4 6 18 6 32 0 21 -2 23 -10 11
-6 -10 -10 -11 -10 -2 0 13 -16 17 -23 4z"/>
<path d="M3980 6340 c-8 -5 -12 -12 -9 -15 4 -3 12 1 19 10 14 17 11 19 -10 5z"/>
<path d="M3997 6304 c3 -8 11 -14 19 -14 7 0 18 -9 24 -20 6 -11 15 -20 21
-20 16 0 -17 41 -44 55 -22 11 -25 11 -20 -1z"/>
<path d="M4150 6251 c0 -6 4 -13 10 -16 6 -3 7 1 4 9 -7 18 -14 21 -14 7z"/>
<path d="M3398 5863 c6 -2 18 -2 25 0 6 3 1 5 -13 5 -14 0 -19 -2 -12 -5z"/>
<path d="M3796 5805 c4 -8 9 -15 13 -15 4 0 8 7 8 15 0 8 -6 15 -13 15 -8 0
-11 -6 -8 -15z"/>
<path d="M3640 5800 c0 -5 5 -10 11 -10 5 0 7 5 4 10 -3 6 -8 10 -11 10 -2 0
-4 -4 -4 -10z"/>
<path d="M3350 5746 c0 -2 9 -6 20 -9 11 -3 20 -1 20 4 0 5 -9 9 -20 9 -11 0
-20 -2 -20 -4z"/>
<path d="M3306 5724 c-5 -14 -4 -15 9 -4 17 14 19 20 6 20 -5 0 -12 -7 -15
-16z"/>
<path d="M3393 5706 c-6 -8 -9 -23 -7 -34 4 -15 -1 -21 -23 -27 -22 -6 -24 -9
-10 -12 21 -5 57 23 57 44 0 7 7 13 15 13 20 0 19 16 -1 24 -19 7 -17 8 -31
-8z"/>
<path d="M3330 5700 c-18 -12 -2 -12 25 0 13 6 15 9 5 9 -8 0 -22 -4 -30 -9z"/>
<path d="M3530 5660 c13 -24 13 -43 0 -35 -5 3 -10 1 -10 -4 0 -6 5 -11 11
-11 5 0 7 -4 4 -10 -3 -5 1 -10 10 -10 11 0 15 5 11 15 -7 20 11 68 24 60 5
-3 10 -24 10 -46 0 -37 1 -38 20 -27 18 11 18 14 5 24 -18 14 -19 31 -2 37 23
8 -4 21 -48 23 -41 2 -44 0 -35 -16z"/>
<path d="M3574 5553 c4 -4 19 -8 34 -10 23 -2 24 -1 7 7 -24 11 -51 13 -41 3z"/>
<path d="M4398 12793 c7 -3 16 -2 19 1 4 3 -2 6 -13 5 -11 0 -14 -3 -6 -6z"/>
<path d="M4541 12796 c6 -5 188 -86 194 -86 2 0 2 7 -1 15 -4 8 -10 12 -15 9
-5 -3 -9 0 -9 5 0 6 -9 11 -21 11 -11 0 -18 4 -14 9 9 15 -54 41 -98 41 -22 0
-38 -2 -36 -4z"/>
<path d="M5001 12786 c25 -6 56 -22 69 -34 13 -12 28 -22 32 -22 5 0 28 -9 50
-20 50 -24 58 -25 58 -4 0 11 -6 14 -21 9 -15 -5 -19 -4 -14 5 4 7 2 10 -6 9
-19 -4 -107 43 -91 48 6 3 9 9 6 15 -4 6 -10 5 -15 -3 -6 -11 -11 -11 -21 -1
-6 6 -30 12 -52 11 l-41 0 46 -13z"/>
<path d="M5148 12776 c23 -14 50 -32 58 -41 19 -18 44 -20 43 -2 -1 22 -59 59
-102 64 l-42 5 43 -26z"/>
<path d="M4435 12780 c3 -5 11 -10 16 -10 6 0 7 5 4 10 -3 6 -11 10 -16 10 -6
0 -7 -4 -4 -10z"/>
<path d="M4340 12740 c0 -5 4 -10 9 -10 6 0 13 5 16 10 3 6 -1 10 -9 10 -9 0
-16 -4 -16 -10z"/>
<path d="M4540 12740 c0 -5 7 -10 15 -10 8 0 15 5 15 10 0 6 -7 10 -15 10 -8
0 -15 -4 -15 -10z"/>
<path d="M5260 12708 c1 -7 30 -33 65 -58 36 -25 77 -55 92 -67 15 -12 40 -25
55 -28 15 -4 35 -16 43 -28 8 -12 15 -17 15 -12 0 16 -14 31 -40 45 -24 13
-170 122 -198 148 -7 6 -18 12 -23 12 -5 0 -9 -6 -9 -12z"/>
<path d="M4826 12701 c5 -5 20 -12 34 -16 22 -7 23 -6 11 9 -7 9 -23 16 -34
16 -13 0 -17 -4 -11 -9z"/>
<path d="M4545 12680 c3 -5 8 -10 11 -10 2 0 4 5 4 10 0 6 -5 10 -11 10 -5 0
-7 -4 -4 -10z"/>
<path d="M4570 12666 c0 -2 7 -7 16 -10 8 -3 12 -2 9 4 -6 10 -25 14 -25 6z"/>
<path d="M4914 12655 c26 -19 42 -19 26 0 -7 8 -20 15 -29 15 -13 -1 -13 -3 3
-15z"/>
<path d="M5260 12658 c0 -11 61 -58 75 -58 17 0 1 21 -20 26 -13 3 -27 15 -30
25 -7 21 -25 26 -25 7z"/>
<path d="M4687 12649 c7 -7 15 -10 18 -7 3 3 -2 9 -12 12 -14 6 -15 5 -6 -5z"/>
<path d="M4724 12631 c7 -11 137 -73 143 -68 4 5 -81 52 -120 66 -16 6 -26 7
-23 2z"/>
<path d="M4520 12600 c0 -5 8 -10 19 -10 10 0 34 -3 52 -6 23 -4 29 -2 19 4
-24 15 -90 24 -90 12z"/>
<path d="M4720 12540 c0 -5 5 -10 10 -10 6 0 10 5 10 10 0 6 -4 10 -10 10 -5
0 -10 -4 -10 -10z"/>
<path d="M4630 12509 c0 -5 5 -9 11 -9 14 0 128 -99 175 -150 18 -20 45 -42
61 -50 15 -8 41 -28 56 -44 34 -36 47 -27 18 12 -25 35 -27 46 -7 39 8 -3 17
-1 20 6 2 7 5 4 5 -5 1 -10 8 -18 16 -18 18 0 20 -16 3 -24 -7 -3 -1 -3 15 0
15 4 27 2 27 -3 0 -5 15 -17 33 -27 66 -35 82 -46 82 -54 0 -16 59 -59 74 -54
8 3 11 0 7 -6 -7 -12 30 -42 52 -42 7 0 38 -12 68 -26 30 -14 60 -24 66 -22
13 5 6 9 -86 64 -27 16 -60 36 -75 45 -15 9 -27 26 -29 41 -2 14 -13 35 -25
46 -26 24 -93 62 -110 62 -7 0 -38 14 -70 30 -57 28 -89 30 -84 7 1 -7 -7 -12
-18 -12 -11 0 -21 8 -23 17 -5 26 -122 138 -162 155 -48 22 -100 33 -100 22z"/>
<path d="M5580 12480 c8 -5 20 -10 25 -10 6 0 3 5 -5 10 -8 5 -19 10 -25 10
-5 0 -3 -5 5 -10z"/>
<path d="M4845 12438 c22 -20 43 -34 48 -31 16 10 5 32 -20 41 -16 5 -37 13
-48 17 -11 5 -2 -8 20 -27z"/>
<path d="M5615 12440 c3 -5 8 -10 11 -10 2 0 4 5 4 10 0 6 -5 10 -11 10 -5 0
-7 -4 -4 -10z"/>
<path d="M4920 12399 c0 -17 3 -29 8 -27 4 3 22 10 41 18 l33 13 -38 13 c-22
8 -40 14 -41 14 -2 0 -3 -14 -3 -31z"/>
<path d="M5815 12420 c3 -5 8 -10 11 -10 2 0 4 5 4 10 0 6 -5 10 -11 10 -5 0
-7 -4 -4 -10z"/>
<path d="M5875 12370 c3 -5 11 -10 16 -10 6 0 7 5 4 10 -3 6 -11 10 -16 10 -6
0 -7 -4 -4 -10z"/>
<path d="M4850 12228 c16 -15 33 -28 39 -28 6 0 11 -4 11 -10 0 -5 6 -10 14
-10 8 0 16 -7 20 -15 3 -10 -1 -15 -11 -15 -31 0 -2 -14 32 -16 l33 -1 -31 38
c-18 21 -37 39 -43 39 -6 0 -19 9 -28 19 -9 10 -28 21 -41 23 -23 5 -23 4 5
-24z"/>
<path d="M6000 12256 c0 -2 8 -10 18 -17 15 -13 16 -12 3 4 -13 16 -21 21 -21
13z"/>
<path d="M5875 12230 c3 -5 8 -10 11 -10 2 0 4 5 4 10 0 6 -5 10 -11 10 -5 0
-7 -4 -4 -10z"/>
<path d="M5916 12195 c4 -8 11 -15 16 -15 6 0 5 6 -2 15 -7 8 -14 15 -16 15
-2 0 -1 -7 2 -15z"/>
<path d="M5234 12068 c-4 -6 0 -16 8 -22 17 -12 75 -59 142 -115 50 -41 136
-128 136 -138 0 -5 30 -35 67 -68 36 -33 89 -84 117 -114 28 -29 85 -78 126
-108 41 -29 89 -63 105 -76 17 -12 55 -39 85 -61 30 -22 66 -50 80 -62 14 -12
44 -32 68 -44 23 -12 42 -26 42 -31 0 -5 7 -9 15 -9 25 0 17 20 -27 64 -24 24
-72 75 -108 115 -65 73 -125 132 -255 255 -48 45 -72 62 -77 53 -5 -8 -8 -7
-8 6 0 9 -4 17 -10 17 -5 0 -10 7 -10 15 0 8 -4 15 -8 15 -10 0 -169 150 -159
150 11 0 -41 47 -77 69 -17 11 -50 24 -74 31 -23 6 -63 22 -88 35 -25 13 -52
21 -61 18 -11 -4 -14 -2 -9 5 4 7 3 12 -3 12 -5 0 -13 -5 -17 -12z m241 -148
c3 -5 2 -10 -4 -10 -5 0 -13 5 -16 10 -3 6 -2 10 4 10 5 0 13 -4 16 -10z"/>
<path d="M4250 12040 c0 -5 5 -10 10 -10 6 0 10 5 10 10 0 6 -4 10 -10 10 -5
0 -10 -4 -10 -10z"/>
<path d="M5220 12005 c0 -4 6 -13 14 -21 16 -16 40 -19 31 -4 -8 12 -45 33
-45 25z"/>
<path d="M6055 11980 c10 -11 20 -20 23 -20 3 0 -3 9 -13 20 -10 11 -20 20
-23 20 -3 0 3 -9 13 -20z"/>
<path d="M6177 11920 c16 -28 43 -41 43 -22 0 10 -43 52 -54 52 -4 0 1 -13 11
-30z"/>
<path d="M4595 11880 c3 -5 11 -10 16 -10 6 0 7 5 4 10 -3 6 -11 10 -16 10 -6
0 -7 -4 -4 -10z"/>
<path d="M4653 11853 c-7 -2 -13 -9 -13 -14 0 -14 26 -10 40 6 10 12 10 15 -1
14 -8 0 -20 -3 -26 -6z"/>
<path d="M6282 11838 c6 -17 68 -63 68 -50 0 13 -50 62 -63 62 -5 0 -7 -5 -5
-12z"/>
<path d="M4670 11820 c0 -5 7 -10 15 -10 8 0 15 5 15 10 0 6 -7 10 -15 10 -8
0 -15 -4 -15 -10z"/>
<path d="M5036 11806 c3 -8 13 -17 21 -20 25 -10 23 -3 -3 17 -18 13 -22 14
-18 3z"/>
<path d="M6415 11730 c10 -11 20 -20 22 -20 2 0 -1 9 -7 20 -6 11 -16 20 -22
20 -6 0 -3 -9 7 -20z"/>
<path d="M3940 11712 c0 -5 7 -13 16 -16 10 -4 14 -1 12 6 -5 15 -28 23 -28
10z"/>
<path d="M4530 11690 c0 -12 48 -25 58 -16 8 9 -18 26 -40 26 -10 0 -18 -4
-18 -10z"/>
<path d="M4487 11679 c7 -7 15 -10 18 -7 3 3 -2 9 -12 12 -14 6 -15 5 -6 -5z"/>
<path d="M4681 11626 c7 -6 79 -46 84 -46 3 0 5 7 5 16 0 8 -5 12 -10 9 -6 -3
-17 1 -26 9 -8 9 -25 16 -36 16 -12 0 -19 -2 -17 -4z"/>
<path d="M5585 11610 c21 -24 26 -25 19 -6 -3 8 -13 17 -22 21 -13 5 -13 2 3
-15z"/>
<path d="M5630 11586 c0 -9 3 -16 8 -16 4 0 12 -10 17 -22 6 -12 16 -23 22
-26 16 -5 -4 36 -30 62 -15 15 -17 15 -17 2z"/>
<path d="M4785 11570 c-3 -5 -1 -10 4 -10 6 0 11 5 11 10 0 6 -2 10 -4 10 -3
0 -8 -4 -11 -10z"/>
<path d="M4818 11543 c7 -3 16 -2 19 1 4 3 -2 6 -13 5 -11 0 -14 -3 -6 -6z"/>
<path d="M4790 11520 c0 -5 5 -10 11 -10 5 0 7 5 4 10 -3 6 -8 10 -11 10 -2 0
-4 -4 -4 -10z"/>
<path d="M4621 11493 c37 -47 45 -53 61 -53 27 0 22 15 -16 44 -40 30 -66 36
-45 9z"/>
<path d="M4125 11480 c-3 -5 1 -10 9 -10 9 0 16 5 16 10 0 6 -4 10 -9 10 -6 0
-13 -4 -16 -10z"/>
<path d="M5710 11476 c0 -9 5 -16 10 -16 6 0 10 4 10 9 0 6 -4 13 -10 16 -5 3
-10 -1 -10 -9z"/>
<path d="M5790 11484 c0 -5 7 -18 15 -28 8 -11 15 -16 15 -10 0 5 -7 18 -15
28 -8 11 -15 16 -15 10z"/>
<path d="M5343 11450 c6 -11 15 -20 19 -20 12 0 -3 28 -18 34 -11 4 -12 2 -1
-14z"/>
<path d="M5758 11443 c7 -3 16 -2 19 1 4 3 -2 6 -13 5 -11 0 -14 -3 -6 -6z"/>
<path d="M5872 11428 c24 -42 82 -118 90 -118 4 0 8 -6 8 -14 0 -7 7 -19 15
-26 8 -7 21 -26 30 -42 13 -26 13 -29 0 -24 -19 7 -19 -1 0 -20 12 -12 15 -12
15 -2 0 7 11 0 25 -16 14 -16 25 -33 25 -38 0 -5 4 -7 9 -3 5 3 12 -4 16 -15
3 -11 16 -28 29 -37 35 -28 51 -63 35 -74 -9 -6 -15 -3 -17 6 -2 8 -8 15 -13
15 -6 0 -5 -8 1 -21 6 -11 9 -28 7 -37 -3 -15 -5 -14 -12 3 -13 31 -45 75 -56
75 -21 0 71 -142 110 -170 12 -8 21 -22 21 -31 0 -9 7 -19 15 -23 22 -8 18 17
-7 50 -43 55 -52 63 -61 57 -6 -4 -8 1 -4 11 4 10 7 22 7 27 0 6 5 7 10 4 6
-3 10 2 10 11 0 14 9 9 38 -19 21 -20 48 -37 59 -37 12 0 26 -8 32 -17 5 -10
13 -14 18 -9 4 5 2 11 -4 13 -7 3 -13 11 -13 18 0 7 -6 15 -12 18 -7 2 -10 8
-6 12 11 11 58 -48 52 -66 -4 -16 19 -43 40 -45 6 0 17 -2 25 -2 7 -1 11 -8 7
-17 -7 -20 3 -45 20 -45 8 0 11 -6 7 -17 -5 -15 -3 -16 7 -6 14 13 12 21 -22
86 -5 10 -6 27 -3 37 5 15 -5 26 -42 50 -44 27 -46 30 -26 36 19 5 22 11 17
33 l-6 26 26 -30 c14 -16 44 -66 67 -110 22 -44 49 -89 60 -101 10 -11 19 -25
19 -30 0 -12 130 -144 142 -144 4 0 8 -7 8 -15 0 -8 5 -15 10 -15 6 0 10 4 10
9 0 6 -4 13 -10 16 -5 3 -10 18 -10 32 0 15 -6 34 -14 42 -8 9 -21 38 -30 64
-9 27 -37 74 -61 104 -25 30 -45 58 -45 61 0 4 -17 26 -37 49 -21 23 -58 65
-82 93 -24 27 -49 50 -56 50 -7 0 -28 15 -47 33 -20 17 -55 43 -79 56 l-44 23
48 -48 c26 -26 46 -54 45 -63 -2 -9 7 -30 20 -45 24 -31 29 -51 10 -40 -17 10
-36 37 -64 89 -29 55 -153 178 -215 213 -27 15 -49 30 -49 35 0 4 -7 7 -16 7
-9 0 -36 20 -60 45 -47 49 -62 57 -42 23z m212 -194 c3 -8 2 -12 -4 -9 -6 3
-10 10 -10 16 0 14 7 11 14 -7z m55 -56 c17 -18 31 -37 31 -42 0 -5 -9 2 -21
15 -11 13 -30 32 -42 41 -12 10 -17 18 -10 18 7 0 26 -15 42 -32z m51 -98 c0
-5 -2 -10 -4 -10 -3 0 -8 5 -11 10 -3 6 -1 10 4 10 6 0 11 -4 11 -10z m181
-43 c-10 -9 -11 -8 -5 6 3 10 9 15 12 12 3 -3 0 -11 -7 -18z m-118 -23 c21
-14 35 -30 31 -35 -4 -6 -11 -6 -20 2 -21 18 -30 2 -11 -19 19 -21 22 -32 7
-32 -5 0 -10 6 -10 13 0 8 -16 30 -35 50 -19 20 -35 38 -35 42 0 13 39 3 73
-21z m412 -364 c3 -5 1 -10 -4 -10 -6 0 -11 5 -11 10 0 6 2 10 4 10 3 0 8 -4
11 -10z"/>
<path d="M4910 11422 c0 -5 29 -30 65 -56 36 -26 72 -54 79 -61 33 -33 209
-175 217 -175 5 0 9 3 9 8 0 12 -130 125 -175 152 -23 14 -60 43 -83 64 -38
36 -95 76 -107 76 -3 0 -5 -4 -5 -8z"/>
<path d="M5810 11393 c0 -15 58 -108 79 -127 11 -11 21 -25 21 -33 0 -7 6 -13
13 -13 7 0 21 -15 30 -32 10 -22 16 -27 16 -15 1 10 -10 30 -24 45 -30 32 -32
46 -6 37 11 -3 22 -1 26 5 3 5 -1 10 -10 10 -9 0 -13 5 -9 11 4 7 0 9 -12 5
-15 -4 -29 9 -62 54 -39 54 -62 73 -62 53z"/>
<path d="M5896 11341 c-3 -5 1 -11 9 -15 8 -3 15 -1 15 4 0 13 -18 22 -24 11z"/>
<path d="M5970 11220 c0 -5 5 -10 10 -10 6 0 10 5 10 10 0 6 -4 10 -10 10 -5
0 -10 -4 -10 -10z"/>
<path d="M8855 11160 c-3 -6 -4 -19 0 -29 3 -11 1 -22 -5 -26 -25 -15 -7 -22
20 -7 31 18 38 40 18 60 -15 15 -25 15 -33 2z"/>
<path d="M4160 11142 c0 -5 7 -15 15 -22 8 -7 15 -9 15 -6 0 4 -7 14 -15 22
-8 9 -15 11 -15 6z"/>
<path d="M4286 11122 c-2 -4 4 -8 14 -8 10 0 16 4 14 8 -3 4 -9 8 -14 8 -5 0
-11 -4 -14 -8z"/>
<path d="M8785 11100 c-3 -5 1 -10 10 -10 9 0 13 5 10 10 -3 6 -8 10 -10 10
-2 0 -7 -4 -10 -10z"/>
<path d="M5990 11091 c0 -5 5 -13 10 -16 6 -3 10 -2 10 4 0 5 -4 13 -10 16 -5
3 -10 2 -10 -4z"/>
<path d="M5350 11070 c0 -5 5 -10 11 -10 5 0 7 5 4 10 -3 6 -8 10 -11 10 -2 0
-4 -4 -4 -10z"/>
<path d="M5820 10947 c0 -8 11 -24 25 -37 30 -28 34 -7 6 28 -22 25 -31 28
-31 9z"/>
<path d="M4430 10941 c0 -5 5 -13 10 -16 6 -3 10 -2 10 4 0 5 -4 13 -10 16 -5
3 -10 2 -10 -4z"/>
<path d="M5510 10926 c0 -8 5 -18 10 -21 6 -3 10 1 10 9 0 8 -4 18 -10 21 -5
3 -10 -1 -10 -9z"/>
<path d="M4466 10897 c3 -10 9 -15 12 -12 3 3 0 11 -7 18 -10 9 -11 8 -5 -6z"/>
<path d="M442 10880 c0 -14 2 -19 5 -12 2 6 2 18 0 25 -3 6 -5 1 -5 -13z"/>
<path d="M5600 10855 c0 -10 57 -65 69 -65 13 0 -27 48 -51 61 -10 5 -18 7
-18 4z"/>
<path d="M6010 10822 c0 -11 22 -32 32 -32 5 0 4 9 -2 20 -11 20 -30 28 -30
12z"/>
<path d="M7893 10765 c-9 -24 1 -27 15 -5 8 13 8 20 2 20 -6 0 -13 -7 -17 -15z"/>
<path d="M4611 10720 c6 -16 15 -30 20 -30 5 0 9 -7 9 -15 0 -8 4 -15 8 -15 8
0 25 -34 58 -120 10 -25 45 -94 79 -155 59 -107 72 -130 110 -205 10 -19 36
-57 57 -84 21 -27 38 -53 38 -57 0 -5 5 -9 10 -9 6 0 10 7 10 15 0 28 20 15
37 -24 15 -34 19 -38 42 -31 14 4 33 5 41 2 12 -4 12 -1 -1 19 -9 13 -19 37
-23 53 -4 18 -10 25 -14 19 -12 -19 -28 -2 -63 62 -98 182 -97 181 -144 251
-50 75 -47 71 -52 56 -3 -6 -9 -9 -14 -6 -6 3 -5 12 3 22 11 13 10 15 -4 9
-13 -4 -15 -2 -11 10 4 10 2 14 -4 10 -5 -4 -15 5 -21 18 -7 14 -16 25 -21 25
-5 0 -14 14 -21 30 -7 17 -16 30 -21 30 -4 0 -11 9 -14 21 -4 11 -20 34 -36
50 -17 17 -34 42 -39 55 -14 36 -31 30 -19 -6z m254 -383 c13 -20 14 -26 4
-22 -15 6 -49 60 -49 78 0 11 9 0 45 -56z m45 -62 c0 -9 -6 -12 -15 -9 -8 4
-15 10 -15 15 0 5 7 9 15 9 8 0 15 -7 15 -15z m40 -54 c7 -17 10 -36 7 -43 -3
-7 -6 -3 -6 10 -1 12 -5 22 -11 22 -5 0 -10 6 -10 14 0 8 -6 17 -12 19 -8 4
-7 6 3 6 9 1 22 -12 29 -28z m70 -135 c0 -6 -7 -1 -15 10 -8 10 -15 23 -15 28
0 6 7 1 15 -10 8 -10 15 -23 15 -28z m78 -58 c16 -16 15 -28 -2 -28 -7 0 -16
9 -19 20 -6 23 3 26 21 8z"/>
<path d="M6280 10738 c0 -9 5 -20 10 -23 13 -8 13 5 0 25 -8 13 -10 13 -10 -2z"/>
<path d="M6350 10709 c0 -9 11 -32 24 -52 24 -35 36 -50 81 -101 13 -14 25
-33 27 -42 2 -10 9 -19 16 -22 17 -5 16 35 -2 45 -7 4 -27 33 -43 63 -17 30
-40 59 -52 65 -11 5 -21 12 -21 15 0 4 -7 15 -15 26 -12 16 -14 16 -15 3z"/>
<path d="M6095 10670 c-3 -5 1 -10 9 -10 9 0 16 -5 16 -11 0 -5 11 -27 25 -47
31 -46 34 -19 4 38 -20 39 -41 51 -54 30z"/>
<path d="M4013 10594 c3 -22 10 -52 17 -69 7 -16 12 -42 11 -57 -1 -15 3 -29
9 -33 5 -3 10 -13 10 -21 0 -27 28 -47 57 -40 21 6 24 4 19 -9 -3 -9 2 -22 13
-32 11 -9 17 -22 14 -29 -6 -15 19 -44 38 -44 10 0 10 3 1 12 -7 7 -12 26 -12
44 0 41 -18 94 -41 120 -11 11 -19 30 -19 42 0 17 -6 22 -25 22 -14 0 -26 6
-26 13 -1 6 -3 19 -4 27 -1 8 -3 23 -4 33 -1 21 -21 23 -21 2 0 -8 5 -15 10
-15 6 0 10 -5 10 -10 0 -7 -6 -6 -18 1 -10 6 -17 23 -17 41 0 17 -6 33 -13 36
-10 3 -12 -6 -9 -34z"/>
<path d="M5460 10614 c0 -6 15 -23 32 -40 l33 -29 -25 30 c-14 17 -28 34 -32
40 -5 5 -8 5 -8 -1z"/>
<path d="M5406 10558 c4 -7 15 -21 25 -33 9 -11 28 -33 42 -50 14 -16 28 -27
32 -24 3 4 0 13 -7 20 -7 8 -28 33 -46 57 -19 23 -38 42 -43 42 -6 0 -7 -5 -3
-12z"/>
<path d="M5535 10520 c3 -5 8 -10 11 -10 2 0 4 5 4 10 0 6 -5 10 -11 10 -5 0
-7 -4 -4 -10z"/>
<path d="M6405 10510 c11 -37 48 -90 64 -90 9 0 5 11 -13 34 -14 19 -26 39
-26 44 0 5 -7 16 -16 23 -15 12 -16 11 -9 -11z"/>
<path d="M4310 10498 c0 -9 5 -20 11 -24 6 -3 9 -17 6 -30 -5 -29 8 -32 23 -5
8 16 5 25 -15 48 -19 21 -24 24 -25 11z"/>
<path d="M9495 10501 c-3 -6 -1 -11 4 -11 6 0 11 -9 11 -19 0 -10 6 -21 14
-24 19 -7 56 3 56 15 0 6 -6 8 -13 5 -14 -5 -54 20 -49 31 6 11 -16 14 -23 3z"/>
<path d="M6520 10493 c1 -5 7 -19 15 -33 10 -19 11 -28 2 -39 -10 -12 -9 -13
7 -4 11 6 20 20 21 31 1 12 -2 19 -6 16 -4 -2 -10 5 -14 16 -6 19 -25 29 -25
13z"/>
<path d="M6480 10470 c0 -5 5 -10 11 -10 5 0 7 5 4 10 -3 6 -8 10 -11 10 -2 0
-4 -4 -4 -10z"/>
<path d="M4180 10456 c0 -11 30 -39 36 -34 2 3 -5 13 -16 23 -11 10 -20 15
-20 11z"/>
<path d="M6255 10450 c3 -5 8 -10 11 -10 2 0 4 5 4 10 0 6 -5 10 -11 10 -5 0
-7 -4 -4 -10z"/>
<path d="M4370 10445 c0 -9 34 -59 44 -67 6 -4 7 -11 2 -15 -5 -4 -11 -2 -13
5 -3 6 -9 12 -14 12 -16 0 -10 -26 11 -45 11 -10 20 -23 20 -30 0 -7 8 -19 19
-29 18 -16 18 -14 19 44 0 57 -2 63 -36 95 -34 32 -52 42 -52 30z"/>
<path d="M5590 10442 c0 -5 12 -19 27 -33 l26 -24 -19 33 c-17 30 -34 42 -34
24z"/>
<path d="M9572 10391 c1 -28 6 -41 15 -41 10 0 13 10 11 37 -4 53 -28 56 -26
4z"/>
<path d="M6570 10397 c0 -7 5 -18 11 -24 7 -7 6 -12 -5 -16 -11 -5 -16 -1 -16
13 0 10 -4 22 -10 25 -15 10 -11 -47 5 -69 8 -10 12 -23 9 -28 -3 -5 2 -16 12
-23 11 -8 15 -15 10 -15 -14 0 27 -29 42 -30 9 0 11 7 6 23 -3 12 -3 18 2 14
4 -4 8 -29 9 -55 0 -36 4 -47 18 -50 15 -3 17 2 11 40 -4 24 -15 57 -25 74
-10 16 -17 39 -15 50 2 10 1 13 -1 7 -3 -7 -14 -13 -26 -13 -19 0 -20 1 -5 16
13 13 13 21 5 45 -11 29 -37 40 -37 16z m45 -97 c3 -6 -1 -7 -9 -4 -18 7 -21
14 -7 14 6 0 13 -4 16 -10z"/>
<path d="M4232 10360 c0 -14 2 -19 5 -12 2 6 2 18 0 25 -3 6 -5 1 -5 -13z"/>
<path d="M4250 10375 c0 -12 24 -55 31 -55 4 0 1 14 -7 30 -14 27 -24 38 -24
25z"/>
<path d="M4480 10353 c0 -4 9 -21 20 -38 22 -34 26 -61 8 -67 -9 -3 -9 -6 0
-12 7 -4 12 -2 12 3 0 6 4 11 9 11 5 0 12 -20 15 -45 7 -42 26 -64 26 -30 0 8
4 15 9 15 12 0 21 -26 21 -60 0 -19 13 -42 40 -71 28 -30 40 -38 40 -26 0 9
-9 26 -20 37 -11 11 -20 26 -20 33 0 20 -37 92 -54 107 -9 7 -16 16 -16 21 0
9 -57 95 -77 117 -7 7 -13 10 -13 5z"/>
<path d="M4350 10271 c0 -5 7 -16 15 -25 8 -8 12 -22 9 -30 -4 -11 -1 -16 10
-16 21 0 20 6 -5 46 -21 35 -29 41 -29 25z"/>
<path d="M4632 10218 c68 -108 83 -128 86 -119 6 19 -75 141 -93 141 -4 0 -1
-10 7 -22z"/>
<path d="M5859 10213 c26 -38 49 -56 33 -27 -6 11 -20 28 -33 39 l-23 20 23
-32z"/>
<path d="M6006 10172 c10 -18 20 -28 22 -23 2 6 -7 21 -19 33 l-22 23 19 -33z"/>
<path d="M4395 10180 c-3 -5 -1 -10 5 -10 8 0 9 -10 5 -30 -4 -16 -3 -35 2
-42 4 -7 13 -35 19 -63 7 -27 22 -81 34 -120 12 -38 27 -88 32 -110 13 -48 8
-41 38 -49 14 -3 19 -3 12 0 -6 3 -9 10 -6 16 4 6 15 -4 25 -23 l18 -34 1 128
c0 70 -4 126 -8 125 -10 -3 -82 71 -82 83 0 17 14 8 51 -31 21 -22 40 -36 43
-31 4 5 -1 16 -9 24 -8 9 -15 20 -15 25 0 12 -136 152 -148 152 -6 0 -14 -4
-17 -10z m50 -60 c3 -5 1 -10 -4 -10 -6 0 -11 5 -11 10 0 6 2 10 4 10 3 0 8
-4 11 -10z m120 -250 c0 -7 -6 -15 -12 -17 -8 -3 -13 4 -13 17 0 13 5 20 13
18 6 -3 12 -11 12 -18z m-12 -50 c-3 -11 -7 -20 -9 -20 -2 0 -4 9 -4 20 0 11
4 20 9 20 5 0 7 -9 4 -20z"/>
<path d="M5120 10176 c0 -2 8 -10 18 -17 15 -13 16 -12 3 4 -13 16 -21 21 -21
13z"/>
<path d="M8398 10164 c-3 -3 5 -17 19 -30 17 -17 29 -22 35 -16 7 7 3 17 -11
31 -21 21 -33 26 -43 15z"/>
<path d="M6660 10130 c0 -5 5 -10 10 -10 6 0 10 -7 10 -15 0 -8 5 -15 10 -15
13 0 13 6 0 31 -11 20 -30 26 -30 9z"/>
<path d="M5990 10068 c19 -49 45 -87 54 -77 7 7 -52 129 -63 129 -7 0 -3 -21
9 -52z"/>
<path d="M5180 10071 c0 -5 7 -15 17 -22 15 -13 15 -12 4 9 -12 23 -21 28 -21
13z"/>
<path d="M5130 10046 c0 -2 11 -24 25 -47 20 -35 25 -39 25 -21 0 12 -4 22 -9
22 -5 0 -12 11 -15 25 -4 14 -11 25 -16 25 -6 0 -10 -2 -10 -4z"/>
<path d="M4731 10014 c0 -11 3 -14 6 -6 3 7 2 16 -1 19 -3 4 -6 -2 -5 -13z"/>
<path d="M6070 9983 c10 -27 27 -53 39 -59 36 -19 138 -108 161 -141 24 -35
48 -46 31 -14 -6 10 -54 67 -107 127 -134 151 -153 164 -124 87z"/>
<path d="M4750 9979 c0 -8 7 -24 15 -35 18 -24 19 -7 0 26 -9 16 -14 19 -15 9z"/>
<path d="M6680 9976 c0 -2 7 -9 15 -16 13 -11 14 -10 9 4 -5 14 -24 23 -24 12z"/>
<path d="M4670 9893 c0 -6 7 -16 15 -23 8 -7 15 -18 15 -25 0 -6 7 -12 14 -12
11 0 12 5 6 16 -12 23 -50 56 -50 44z"/>
<path d="M8740 9880 c0 -5 5 -10 10 -10 6 0 10 5 10 10 0 6 -4 10 -10 10 -5 0
-10 -4 -10 -10z"/>
<path d="M9555 9789 c-22 -18 -29 -19 -35 -8 -5 7 -12 10 -16 6 -9 -8 34 -47
51 -47 17 0 27 28 12 34 -7 2 -2 5 11 5 12 1 22 7 22 16 0 21 -12 19 -45 -6z"/>
<path d="M10 9744 c-10 -27 -14 -91 -5 -82 7 7 24 108 18 108 -2 0 -8 -12 -13
-26z"/>
<path d="M4557 9697 c3 -26 1 -47 -3 -46 -20 3 -26 -2 -15 -15 6 -8 11 -18 10
-22 -3 -19 1 -47 7 -42 10 11 13 114 4 143 -7 24 -8 21 -3 -18z"/>
<path d="M8916 9675 c4 -8 8 -15 10 -15 2 0 4 7 4 15 0 8 -4 15 -10 15 -5 0
-7 -7 -4 -15z"/>
<path d="M6265 9660 c3 -5 8 -10 11 -10 2 0 4 5 4 10 0 6 -5 10 -11 10 -5 0
-7 -4 -4 -10z"/>
<path d="M9270 9639 c0 -5 5 -7 10 -4 6 3 10 8 10 11 0 2 -4 4 -10 4 -5 0 -10
-5 -10 -11z"/>
<path d="M9535 9641 c-6 -11 9 -23 19 -14 9 9 7 23 -3 23 -6 0 -12 -4 -16 -9z"/>
<path d="M5223 9612 c0 -12 5 -22 9 -22 11 0 10 12 -2 30 -7 12 -9 10 -7 -8z"/>
<path d="M5516 9555 c4 -9 15 -15 28 -13 29 4 23 22 -9 26 -19 3 -24 0 -19
-13z"/>
<path d="M4931 9554 c0 -5 7 -25 14 -44 l13 -35 1 31 c1 17 -6 37 -14 44 -8 7
-15 9 -14 4z"/>
<path d="M5536 9521 c-3 -5 1 -14 9 -21 8 -7 15 -18 15 -24 0 -6 9 -22 19 -35
15 -19 19 -21 24 -8 3 9 -3 27 -14 40 -10 14 -19 32 -19 41 0 17 -25 22 -34 7z"/>
<path d="M5226 9498 c4 -6 7 -27 6 -46 -2 -43 26 -107 65 -149 17 -17 33 -39
37 -50 6 -15 9 -16 16 -3 10 19 -16 183 -30 188 -6 2 -10 8 -10 14 0 18 -45
53 -68 55 -14 1 -20 -2 -16 -9z"/>
<path d="M5470 9500 c0 -5 5 -10 11 -10 5 0 7 5 4 10 -3 6 -8 10 -11 10 -2 0
-4 -4 -4 -10z"/>
<path d="M8863 9502 c-10 -6 -10 -12 2 -28 14 -18 14 -18 15 9 0 30 0 30 -17
19z"/>
<path d="M9140 9490 c0 -5 5 -10 10 -10 6 0 10 5 10 10 0 6 -4 10 -10 10 -5 0
-10 -4 -10 -10z"/>
<path d="M5450 9441 c0 -15 27 -61 32 -55 3 3 -1 18 -9 35 -15 29 -23 37 -23
20z"/>
<path d="M5500 9441 c0 -21 13 -41 26 -41 17 0 17 10 0 33 -14 19 -26 22 -26
8z"/>
<path d="M6425 9430 c3 -5 14 -10 23 -10 15 0 15 2 2 10 -20 13 -33 13 -25 0z"/>
<path d="M5370 9356 c0 -25 5 -48 10 -51 6 -4 8 -11 5 -16 -10 -15 11 -10 24
5 9 10 9 16 1 21 -6 4 -8 15 -5 26 4 11 2 19 -4 19 -6 0 -11 6 -11 14 0 8 -4
18 -10 21 -6 4 -10 -11 -10 -39z"/>
<path d="M5096 9308 c7 -29 14 -66 15 -83 2 -27 2 -27 6 -6 6 29 -16 141 -27
141 -5 0 -2 -24 6 -52z"/>
<path d="M6630 9310 c0 -5 7 -10 16 -10 8 0 12 5 9 10 -3 6 -10 10 -16 10 -5
0 -9 -4 -9 -10z"/>
<path d="M9420 9266 c-16 -20 25 -76 56 -76 12 0 28 -7 35 -16 15 -19 50 -34
62 -27 4 3 -3 16 -17 30 -14 14 -30 22 -36 18 -5 -3 -10 -2 -10 4 0 10 -34 24
-60 25 -10 1 -14 10 -12 29 3 31 0 33 -18 13z"/>
<path d="M8878 9230 c-4 -26 -1 -30 19 -30 25 0 29 11 13 41 -15 27 -27 24
-32 -11z"/>
<path d="M5230 9203 c0 -13 5 -23 10 -23 13 0 13 11 0 30 -8 12 -10 11 -10 -7z"/>
<path d="M8317 9213 c-3 -5 -1 -17 4 -28 6 -17 7 -16 6 8 -1 28 -3 32 -10 20z"/>
<path d="M7625 9066 c-134 -90 -163 -160 -201 -481 -20 -172 -15 -239 25 -327
17 -37 31 -76 31 -85 0 -10 7 -31 15 -47 8 -15 15 -33 15 -38 0 -31 140 -283
171 -307 14 -11 43 -55 64 -98 21 -43 44 -83 50 -90 7 -6 18 -26 25 -45 8 -18
24 -47 37 -64 13 -17 23 -36 23 -42 0 -6 8 -17 18 -24 17 -11 38 -40 91 -122
7 -11 31 -34 52 -51 40 -32 52 -53 70 -127 13 -54 3 -51 204 -68 163 -15 430
-64 592 -110 40 -11 77 -20 83 -20 21 0 9 19 -17 28 l-28 10 30 2 c24 0 33 8
47 37 17 36 17 38 -1 58 -10 11 -16 25 -14 32 2 7 -7 15 -22 19 -17 4 -23 9
-15 14 15 9 -2 47 -34 72 -15 13 -17 18 -6 18 10 0 4 9 -15 26 -24 21 -27 27
-15 34 12 8 12 10 -4 10 -23 0 -66 40 -66 61 0 9 -7 19 -15 23 -8 3 -15 1 -15
-4 0 -6 -9 -1 -20 10 -11 11 -17 26 -14 35 4 10 0 15 -14 15 -12 0 -22 9 -27
23 -4 13 -8 17 -12 10 -8 -22 -31 -14 -37 13 -4 16 -19 30 -39 39 -18 8 -38
25 -45 39 -6 14 -16 26 -22 26 -16 0 -47 35 -42 48 2 7 -3 12 -12 12 -9 0 -16
7 -16 16 0 9 -6 14 -12 11 -17 -6 -50 12 -43 23 3 5 12 7 20 3 8 -3 15 -1 15
4 0 15 -45 35 -71 31 -19 -2 -26 3 -34 29 -15 46 -24 51 -45 23 -18 -23 -19
-23 -14 -3 4 16 -2 27 -25 44 -17 12 -31 29 -31 37 0 9 -6 12 -16 8 -11 -4
-18 1 -21 14 -3 11 -14 20 -24 20 -13 0 -19 7 -19 24 0 14 -5 28 -11 32 -6 3
-8 16 -5 28 3 12 3 31 0 44 -5 17 -10 20 -24 12 -24 -13 -60 -13 -60 0 0 5 -6
7 -14 4 -7 -3 -16 2 -20 11 -3 9 -10 13 -16 10 -11 -7 -12 -1 -10 76 1 54 0
58 -37 88 -21 17 -43 29 -49 27 -7 -3 -10 3 -7 15 4 13 0 19 -10 19 -22 0 -32
20 -16 31 10 6 11 9 2 9 -7 0 -13 5 -13 10 0 6 -9 30 -20 52 -11 23 -20 50
-20 59 0 10 -3 19 -7 21 -5 2 -16 26 -26 53 -10 28 -25 67 -33 87 -7 21 -16
54 -18 74 -3 20 -10 42 -15 47 -22 22 -4 126 19 112 5 -3 28 -42 51 -85 23
-44 46 -80 51 -80 6 0 8 6 6 13 -3 6 -13 39 -23 72 -22 73 -62 163 -86 190
-21 24 -54 78 -74 123 -8 17 -16 32 -18 32 -1 0 -25 -15 -52 -34z"/>
<path d="M5275 9048 c-4 -10 -2 -39 5 -65 6 -26 15 -66 20 -88 14 -64 36 -119
48 -123 14 -4 10 23 -20 148 -26 107 -44 152 -53 128z"/>
<path d="M9116 9043 c-6 -14 -5 -15 5 -6 7 7 10 15 7 18 -3 3 -9 -2 -12 -12z"/>
<path d="M5335 9040 c-6 -9 0 -75 11 -129 4 -20 7 -22 15 -10 6 9 7 5 3 -16
-7 -38 8 -107 24 -113 8 -2 12 12 13 50 0 45 2 49 10 28 5 -13 9 -36 7 -49 -2
-19 2 -26 17 -29 11 -2 37 -10 58 -18 21 -8 43 -12 48 -8 13 7 -16 41 -43 49
-18 6 -18 7 2 23 19 15 20 21 9 52 -6 19 -24 51 -38 70 -14 19 -30 43 -36 54
-19 35 -30 17 -27 -44 3 -39 0 -60 -7 -60 -6 0 -11 18 -11 41 0 38 -2 40 -17
28 -15 -13 -16 -11 -9 14 11 47 -10 97 -29 67z"/>
<path d="M5498 9029 c5 -13 17 -26 27 -27 23 -5 15 17 -13 36 -21 14 -22 14
-14 -9z"/>
<path d="M5113 9001 c-1 -20 1 -47 3 -60 5 -22 6 -23 19 -5 20 26 18 51 -3 79
l-18 23 -1 -37z"/>
<path d="M6436 8981 c5 -5 27 -11 49 -14 l40 -6 -30 14 c-34 16 -75 20 -59 6z"/>
<path d="M6638 8983 c6 -2 18 -2 25 0 6 3 1 5 -13 5 -14 0 -19 -2 -12 -5z"/>
<path d="M6426 8951 c15 -14 54 -23 54 -13 0 5 -10 12 -22 16 -33 8 -44 8 -32
-3z"/>
<path d="M6780 8940 c-13 -8 -12 -10 3 -10 9 0 17 5 17 10 0 12 -1 12 -20 0z"/>
<path d="M9135 8940 c3 -5 8 -10 11 -10 2 0 4 5 4 10 0 6 -5 10 -11 10 -5 0
-7 -4 -4 -10z"/>
<path d="M6502 8933 c-24 -9 0 -23 39 -23 21 0 39 -4 39 -10 0 -5 7 -10 16
-10 14 0 14 2 -1 16 -17 18 -72 33 -93 27z"/>
<path d="M9528 8860 c4 -14 6 -43 4 -65 -3 -57 5 -85 27 -85 10 0 23 -10 29
-22 9 -19 11 -7 11 60 1 78 0 82 -21 82 l-23 1 23 18 c32 28 27 39 -18 37 -37
-1 -39 -2 -32 -26z"/>
<path d="M6597 8859 c7 -7 15 -10 18 -7 3 3 -2 9 -12 12 -14 6 -15 5 -6 -5z"/>
<path d="M5247 8823 c8 -50 13 -55 13 -10 0 20 -4 38 -9 42 -6 3 -7 -10 -4
-32z"/>
<path d="M9297 8788 c-6 -19 4 -49 14 -42 12 7 12 41 0 48 -5 4 -11 0 -14 -6z"/>
<path d="M5267 8710 c8 -91 32 -210 42 -210 3 0 7 -21 7 -47 2 -72 35 -236 52
-252 12 -13 13 -8 9 35 -6 51 -34 188 -44 214 -4 8 -7 26 -9 40 -1 14 -7 45
-13 70 -5 25 -10 66 -11 92 0 30 -5 50 -14 55 -8 4 -16 19 -19 33 -2 14 -2 0
0 -30z"/>
<path d="M9220 8753 c0 -29 13 -41 35 -32 17 6 17 8 3 8 -11 1 -18 9 -18 21 0
11 -4 20 -10 20 -5 0 -10 -8 -10 -17z"/>
<path d="M9430 8730 c0 -5 14 -10 31 -10 17 0 28 4 24 10 -3 6 -17 10 -31 10
-13 0 -24 -4 -24 -10z"/>
<path d="M6510 8690 c0 -5 5 -10 10 -10 6 0 10 5 10 10 0 6 -4 10 -10 10 -5 0
-10 -4 -10 -10z"/>
<path d="M5391 8674 c0 -11 3 -14 6 -6 3 7 2 16 -1 19 -3 4 -6 -2 -5 -13z"/>
<path d="M6804 8649 c-3 -6 -1 -16 5 -22 8 -8 11 -5 11 11 0 24 -5 28 -16 11z"/>
<path d="M8760 8630 c0 -11 5 -20 10 -20 6 0 10 9 10 20 0 11 -4 20 -10 20 -5
0 -10 -9 -10 -20z"/>
<path d="M9420 8640 c0 -5 5 -10 10 -10 6 0 10 5 10 10 0 6 -4 10 -10 10 -5 0
-10 -4 -10 -10z"/>
<path d="M9150 8601 c0 -5 7 -12 16 -15 24 -9 28 -7 14 9 -14 17 -30 20 -30 6z"/>
<path d="M6512 8530 l1 -75 7 60 c4 33 3 67 -1 75 -5 9 -8 -17 -7 -60z"/>
<path d="M6807 8593 c-3 -5 -4 -18 -2 -29 2 -10 4 -27 4 -36 2 -36 16 -17 16
21 0 40 -8 60 -18 44z"/>
<path d="M8328 8533 c-20 -5 -23 -20 -8 -43 8 -13 12 -12 31 6 12 12 18 27 15
33 -7 11 -10 12 -38 4z"/>
<path d="M8235 8490 c-3 -5 -3 -14 0 -20 3 -5 0 -10 -8 -10 -18 0 -42 -28 -33
-37 4 -4 10 -3 14 3 4 6 15 13 25 17 10 4 17 17 17 32 0 26 -5 31 -15 15z"/>
<path d="M8901 8462 c0 -16 3 -21 6 -12 3 8 10 18 15 21 5 3 3 9 -6 12 -12 5
-16 0 -15 -21z"/>
<path d="M5166 8406 c-8 -31 -1 -45 14 -30 7 7 7 20 2 34 l-9 24 -7 -28z"/>
<path d="M9293 8423 c9 -2 23 -2 30 0 6 3 -1 5 -18 5 -16 0 -22 -2 -12 -5z"/>
<path d="M6806 8363 c-3 -21 -8 -74 -11 -118 -6 -81 -57 -381 -75 -445 -11
-38 -13 -77 -4 -67 9 8 23 69 44 182 10 55 23 118 29 140 11 47 35 334 28 341
-3 3 -8 -12 -11 -33z"/>
<path d="M6502 8320 c0 -14 2 -19 5 -12 2 6 2 18 0 25 -3 6 -5 1 -5 -13z"/>
<path d="M6488 8255 c-4 -22 -8 -53 -8 -70 1 -25 2 -27 11 -12 5 9 9 41 7 70
l-3 52 -7 -40z"/>
<path d="M9340 8261 c-26 -49 6 -132 45 -118 13 6 16 14 11 35 -27 109 -35
121 -56 83z"/>
<path d="M8820 8222 c6 -13 14 -21 18 -18 3 4 -2 14 -12 24 -18 16 -18 16 -6
-6z"/>
<path d="M5463 8150 c2 -29 11 -38 21 -22 7 12 -4 52 -15 52 -4 0 -7 -13 -6
-30z"/>
<path d="M5368 8159 c-7 -19 1 -67 13 -75 10 -6 10 29 0 66 -5 19 -8 21 -13 9z"/>
<path d="M5196 8093 c-6 -14 -5 -15 5 -6 7 7 10 15 7 18 -3 3 -9 -2 -12 -12z"/>
<path d="M9531 8066 c-14 -16 5 -66 25 -66 17 0 27 -49 13 -66 -19 -23 -41
-17 -35 9 3 12 3 16 0 10 -3 -7 -12 -13 -19 -13 -34 0 -48 -79 -15 -87 11 -3
20 -9 20 -14 0 -5 7 -9 15 -9 8 0 15 -7 15 -15 0 -13 -4 -14 -20 -5 -11 6 -20
15 -20 20 0 6 -5 10 -12 10 -6 0 1 -13 17 -30 19 -19 39 -30 57 -30 l28 0 0
150 0 150 -29 0 c-16 0 -34 -6 -40 -14z"/>
<path d="M5386 7985 c3 -49 8 -92 10 -94 9 -10 3 156 -7 169 -7 11 -8 -12 -3
-75z"/>
<path d="M9292 8020 c0 -14 2 -19 5 -12 2 6 2 18 0 25 -3 6 -5 1 -5 -13z"/>
<path d="M8967 8014 c-14 -14 -6 -24 19 -24 16 0 24 5 22 13 -5 14 -31 21 -41
11z"/>
<path d="M9033 7993 c9 -2 23 -2 30 0 6 3 -1 5 -18 5 -16 0 -22 -2 -12 -5z"/>
<path d="M9300 7978 c0 -9 -7 -19 -17 -22 -14 -6 -14 -8 3 -21 10 -8 27 -15
37 -15 9 0 25 -9 34 -20 20 -22 38 -27 26 -7 -21 36 -83 99 -83 85z"/>
<path d="M9400 7903 c0 -33 15 -52 31 -36 5 5 0 21 -11 38 l-20 30 0 -32z"/>
<path d="M9041 7768 c1 -7 -1 -21 -5 -30 -5 -10 -1 -26 9 -40 15 -22 16 -22
14 30 -2 28 -6 52 -11 52 -5 0 -8 -6 -7 -12z"/>
<path d="M7556 7751 c-14 -6 -16 -10 -7 -15 9 -6 9 -11 1 -21 -7 -8 -7 -16 -2
-19 6 -3 15 1 22 9 7 8 9 15 4 15 -5 0 -2 5 6 10 20 13 1 30 -24 21z"/>
<path d="M9095 7720 c-12 -19 23 -84 52 -97 30 -14 163 -18 163 -5 0 5 -9 17
-20 27 -18 16 -23 17 -45 5 -17 -9 -28 -10 -37 -2 -7 5 -24 12 -38 14 -14 2
-24 8 -24 13 1 6 -9 21 -21 34 -16 16 -25 19 -30 11z"/>
<path d="M6690 7696 c-15 -41 -10 -56 6 -17 8 18 13 36 10 39 -3 2 -10 -7 -16
-22z"/>
<path d="M6657 7615 c-4 -11 -10 -27 -13 -35 -3 -8 1 -5 11 8 9 12 15 28 13
34 -3 7 -7 4 -11 -7z"/>
<path d="M9392 7608 c2 -16 15 -27 46 -38 24 -8 48 -24 54 -34 10 -17 8 -18
-21 -13 -32 7 -36 1 -32 -44 1 -9 -5 -19 -13 -22 -9 -4 -12 -14 -9 -29 8 -29
22 -39 49 -32 12 3 25 1 28 -5 4 -6 15 -11 24 -11 22 0 60 42 43 48 -6 2 -16
13 -22 24 -8 15 -7 24 5 37 13 15 12 21 -14 63 -16 26 -27 54 -24 63 8 19 -10
20 -26 0 -7 -8 -20 -15 -30 -15 -10 0 -20 7 -24 15 -9 24 -38 18 -34 -7z"/>
<path d="M5360 7587 c0 -20 5 -39 11 -42 7 -5 8 5 3 32 -9 51 -14 54 -14 10z"/>
<path d="M9327 7558 c2 -24 5 -72 6 -107 2 -65 14 -84 35 -58 9 10 9 36 2 98
-13 100 -15 109 -33 109 -11 0 -13 -11 -10 -42z"/>
<path d="M6522 7515 c-18 -8 -39 -12 -47 -9 -9 4 -15 0 -15 -10 0 -9 7 -16 16
-16 16 0 84 37 84 46 0 5 0 5 -38 -11z"/>
<path d="M7660 7482 c0 -4 9 -13 20 -20 12 -7 20 -8 20 -2 0 5 1 13 3 17 1 3
-8 8 -20 9 -13 2 -23 0 -23 -4z"/>
<path d="M7720 7455 c0 -8 7 -15 15 -15 8 0 15 -4 15 -10 0 -5 4 -10 10 -10
15 0 2 24 -20 38 -17 10 -20 10 -20 -3z"/>
<path d="M9220 7430 c0 -12 49 -30 55 -20 3 5 0 12 -7 16 -16 10 -48 13 -48 4z"/>
<path d="M7872 7319 c2 -7 10 -15 17 -17 8 -3 12 1 9 9 -2 7 -10 15 -17 17 -8
3 -12 -1 -9 -9z"/>
<path d="M9281 7278 c-1 -13 7 -17 38 -15 22 0 37 5 34 10 -3 5 -18 6 -34 3
-17 -3 -29 -1 -33 7 -2 7 -5 5 -5 -5z"/>
<path d="M9327 7253 c-13 -12 -7 -22 12 -20 15 1 17 4 9 14 -12 15 -13 15 -21
6z"/>
<path d="M9533 7241 c-3 -12 -12 -20 -22 -19 -9 2 -16 -5 -18 -17 -1 -11 -5
-29 -8 -40 -5 -18 0 -22 39 -33 25 -6 52 -9 61 -6 28 11 11 84 -20 84 -8 0
-15 5 -15 11 0 5 5 7 10 4 15 -10 12 5 -6 22 -14 14 -16 14 -21 -6z"/>
<path d="M6351 7084 c0 -11 3 -14 6 -6 3 7 2 16 -1 19 -3 4 -6 -2 -5 -13z"/>
<path d="M4736 5350 c-20 -24 -68 -122 -62 -127 2 -3 17 13 33 36 15 22 33 40
38 41 6 0 20 15 32 34 l22 34 -25 -2 c-14 0 -31 -8 -38 -16z"/>
<path d="M4437 5335 c-16 -14 -33 -23 -38 -20 -5 4 -9 2 -9 -3 0 -5 -11 -14
-24 -20 -19 -8 -23 -16 -19 -33 4 -16 3 -20 -6 -15 -7 4 -11 16 -9 26 2 11 -1
19 -7 19 -5 0 -8 -13 -7 -29 l3 -29 -90 6 c-65 4 -91 3 -91 -6 0 -6 5 -11 10
-11 6 0 10 -11 10 -24 0 -13 7 -29 15 -36 8 -7 15 -18 15 -25 0 -7 10 -15 22
-18 29 -8 141 48 154 77 7 16 16 20 41 18 37 -4 61 8 120 55 23 19 47 32 53
28 14 -8 13 -26 -1 -22 -6 1 -14 -5 -16 -13 -4 -13 -3 -13 7 0 10 13 11 13 7
0 -2 -8 -11 -14 -20 -12 -8 1 -18 -2 -22 -8 -3 -5 -1 -10 5 -10 6 0 8 -5 4
-11 -4 -8 -9 -7 -15 2 -6 11 -15 7 -39 -16 -29 -28 -41 -53 -18 -39 7 4 8 3 4
-4 -4 -7 -14 -12 -22 -12 -23 0 -11 -25 14 -28 15 -2 22 2 22 12 0 9 6 16 14
16 22 0 75 70 88 115 6 22 15 44 20 50 14 16 9 28 -7 15 -12 -10 -18 -10 -29
-1 -12 10 -17 8 -26 -8 -13 -24 -30 -28 -30 -6 0 8 -5 15 -12 15 -6 0 -8 -3
-5 -7 4 -3 -2 -13 -14 -21 -15 -10 -24 -11 -32 -3 -7 7 -6 12 6 17 17 6 25 44
10 44 -5 0 -21 -12 -36 -25z m-17 -99 c0 -3 -4 -8 -10 -11 -5 -3 -10 -1 -10 4
0 6 5 11 10 11 6 0 10 -2 10 -4z m-160 -26 c0 -5 -4 -10 -10 -10 -5 0 -10 5
-10 10 0 6 5 10 10 10 6 0 10 -4 10 -10z m67 -32 c-3 -8 -6 -5 -6 6 -1 11 2
17 5 13 3 -3 4 -12 1 -19z m-22 -8 c-3 -5 -14 -10 -24 -10 -9 0 -22 -5 -29
-12 -16 -16 -15 -1 1 17 14 16 62 21 52 5z"/>
<path d="M8040 5260 c0 -5 5 -10 10 -10 6 0 10 5 10 10 0 6 -4 10 -10 10 -5 0
-10 -4 -10 -10z"/>
<path d="M3555 5216 c-79 -43 -125 -79 -125 -97 0 -11 5 -19 10 -19 9 0 14 15
8 23 -5 6 24 37 33 37 5 0 6 -6 4 -12 -7 -18 10 -42 23 -34 6 4 9 13 5 21 -3
8 -1 15 3 15 15 -1 44 -27 38 -33 -4 -3 -3 -18 0 -32 5 -20 11 -25 24 -20 10
4 22 -2 34 -17 12 -15 18 -18 18 -8 0 8 -12 24 -27 36 -23 18 -25 24 -14 37 7
9 10 22 6 29 -4 7 1 4 10 -7 15 -19 17 -19 29 -2 13 16 15 16 31 -9 9 -14 20
-23 23 -19 7 7 8 12 11 40 0 8 6 15 12 15 6 0 8 -7 5 -16 -3 -8 -1 -20 4 -27
6 -7 17 -21 26 -32 14 -18 14 -16 10 32 -3 41 -1 51 10 46 13 -5 15 -13 18
-67 1 -11 7 -21 14 -23 16 -6 17 78 0 95 -7 7 -23 12 -38 12 -14 0 -38 7 -54
15 -15 8 -35 15 -43 15 -8 0 -26 6 -41 14 -24 13 -31 12 -67 -8z"/>
<path d="M4646 5184 c-30 -29 -19 -33 14 -4 13 11 18 20 12 20 -6 0 -18 -7
-26 -16z"/>
<path d="M4105 5180 c-3 -5 1 -10 9 -10 8 0 18 5 21 10 3 6 -1 10 -9 10 -8 0
-18 -4 -21 -10z"/>
<path d="M4316 5113 c-6 -14 -5 -15 5 -6 7 7 10 15 7 18 -3 3 -9 -2 -12 -12z"/>
<path d="M4427 5109 c6 -22 23 -26 23 -5 0 8 -6 16 -14 19 -10 4 -12 0 -9 -14z"/>
<path d="M4490 5111 c-13 -25 -13 -34 0 -26 16 10 32 45 21 45 -6 0 -15 -9
-21 -19z"/>
<path d="M3850 5113 c0 -5 5 -15 10 -23 8 -12 10 -11 10 8 0 12 -4 22 -10 22
-5 0 -10 -3 -10 -7z"/>
<path d="M4393 5094 c-7 -3 -10 -11 -7 -19 3 -8 -4 -20 -15 -27 -29 -18 -26
-29 3 -15 15 7 26 22 28 39 3 16 4 28 4 27 -1 0 -6 -3 -13 -5z"/>
<path d="M4339 5074 c-12 -14 -11 -16 5 -13 11 2 21 10 24 17 5 17 -13 15 -29
-4z"/>
<path d="M4423 5073 c-15 -5 -18 -43 -4 -43 5 0 12 7 15 16 3 8 10 13 15 9 5
-3 12 -1 15 4 7 10 -23 20 -41 14z"/>
<path d="M3631 4985 c13 -13 25 -20 27 -15 4 12 -23 40 -38 40 -7 0 -2 -11 11
-25z"/>
<path d="M3700 4889 c0 -5 5 -7 10 -4 6 3 10 8 10 11 0 2 -4 4 -10 4 -5 0 -10
-5 -10 -11z"/>
<path d="M3710 4850 c0 -5 5 -10 11 -10 5 0 7 5 4 10 -3 6 -8 10 -11 10 -2 0
-4 -4 -4 -10z"/>
<path d="M3740 4810 c0 -5 5 -10 10 -10 6 0 10 5 10 10 0 6 -4 10 -10 10 -5 0
-10 -4 -10 -10z"/>
<path d="M9537 4729 c-9 -10 -17 -25 -17 -31 0 -9 -3 -9 -11 -1 -6 6 -18 9
-25 6 -11 -4 -12 -8 -3 -20 9 -11 9 -17 0 -26 -10 -9 -15 -8 -23 7 -10 17 -12
16 -24 -13 -7 -17 -18 -31 -24 -31 -7 0 -9 -8 -5 -19 7 -23 -19 -41 -58 -41
-20 0 -23 -4 -19 -29 4 -27 1 -29 -35 -35 -126 -19 -126 -19 -120 -3 7 19 -18
41 -38 33 -8 -3 -15 -1 -15 4 0 6 -18 10 -40 10 -36 0 -40 -2 -40 -25 0 -14 4
-25 9 -25 4 0 3 -18 -3 -41 -8 -33 -8 -42 4 -49 8 -5 11 -13 6 -17 -5 -4 -11
-2 -13 5 -3 7 -21 12 -46 11 -34 -1 -37 -2 -17 -8 18 -5 25 -14 25 -31 0 -17
-7 -26 -25 -30 -22 -5 -19 -7 18 -13 25 -4 42 -13 42 -21 0 -10 -9 -12 -39 -6
-40 7 -99 -12 -70 -23 9 -3 3 -10 -18 -18 -24 -10 -33 -20 -33 -37 0 -23 -22
-54 -37 -51 -26 4 -33 -4 -33 -40 0 -25 5 -41 15 -45 25 -9 18 -28 -7 -21 -39
12 -43 11 -40 -13 3 -19 -1 -23 -15 -20 -12 2 -17 11 -15 26 2 12 -1 22 -7 22
-5 0 -13 20 -17 45 -3 25 -10 45 -14 45 -5 0 -10 8 -13 18 -2 9 -2 -9 1 -40 4
-44 2 -58 -9 -58 -10 0 -10 -3 -1 -12 10 -10 14 -10 21 0 4 7 6 -13 5 -45 -3
-43 -1 -54 7 -40 5 9 19 17 31 17 20 0 20 -1 -3 -24 -21 -22 -24 -23 -57 -9
-37 15 -36 18 -16 -32 3 -8 2 -15 -4 -15 -5 0 -13 7 -16 16 -6 15 -8 15 -30 1
-21 -14 -25 -14 -41 1 -16 16 -17 16 -5 -7 7 -13 21 -26 31 -28 18 -5 19 -7 3
-24 -16 -17 -49 -16 -38 2 8 14 -22 39 -46 39 -17 0 -20 -4 -15 -21 6 -18 4
-20 -15 -14 -18 6 -21 3 -20 -17 3 -38 1 -50 -10 -43 -15 9 -40 -14 -33 -31 3
-8 0 -14 -6 -14 -6 0 -11 8 -11 18 0 26 -6 30 -36 24 -18 -3 -23 -9 -19 -22 4
-12 -7 -32 -32 -59 -54 -59 -58 -64 -58 -83 0 -30 24 -42 80 -42 30 0 55 -4
55 -8 0 -4 16 -8 35 -8 44 0 51 -29 8 -31 l-28 -1 25 -7 c17 -5 29 -3 36 8 7
9 17 12 30 6 17 -7 17 -8 -6 -14 -24 -7 -24 -7 9 -14 50 -10 151 -8 151 3 0 6
11 10 25 10 14 0 24 -5 22 -12 -1 -7 9 -14 23 -15 22 -2 23 -2 5 6 -14 7 0 10
50 10 49 0 65 -3 54 -9 -9 -5 -22 -23 -28 -38 -10 -24 -9 -36 3 -65 15 -38 67
-77 100 -77 11 0 29 -9 40 -19 46 -42 186 -69 186 -36 0 9 -7 18 -15 21 -8 4
-15 12 -15 19 0 7 -6 15 -12 18 -8 2 -9 8 -4 13 5 5 11 3 14 -5 8 -24 43 -53
57 -47 8 3 39 -4 71 -15 49 -17 61 -18 88 -8 17 7 35 19 39 26 6 10 12 11 21
4 10 -8 18 -6 31 9 14 16 21 18 32 8 12 -10 17 -8 25 6 7 12 17 16 34 12 15
-4 24 -2 24 6 0 6 11 24 25 39 22 22 27 38 31 99 4 54 2 75 -8 81 -21 13 -31
10 -24 -7 11 -29 -17 -9 -36 26 -20 38 -24 80 -8 80 6 0 10 -6 10 -14 0 -15
45 -56 61 -56 5 0 9 252 9 562 0 309 -3 558 -6 555 -4 -3 -14 -2 -24 3 -12 6
-21 3 -33 -11z m3 -53 c0 -3 -4 -8 -10 -11 -5 -3 -10 -1 -10 4 0 6 5 11 10 11
6 0 10 -2 10 -4z m-430 -156 c0 -5 -9 -10 -20 -10 -11 0 -20 5 -20 10 0 6 9
10 20 10 11 0 20 -4 20 -10z m250 -30 c0 -5 -7 -10 -16 -10 -8 0 -12 5 -9 10
3 6 10 10 16 10 5 0 9 -4 9 -10z m-190 -39 c17 -43 7 -63 -13 -24 -19 36 -21
53 -8 53 5 0 14 -13 21 -29z m-59 -65 c-6 -7 -8 -16 -4 -20 4 -4 8 -21 9 -37
1 -21 -3 -29 -16 -29 -26 0 -62 36 -57 57 4 16 6 15 12 -4 7 -23 16 -28 28
-16 4 3 0 14 -9 24 -15 17 -15 19 10 30 14 7 26 17 27 23 0 6 3 5 6 -2 3 -7 0
-19 -6 -26z m-115 -135 c-10 -16 -36 -13 -36 3 0 17 21 27 34 16 4 -5 5 -13 2
-19z m64 -7 c0 -2 -7 -4 -15 -4 -8 0 -15 4 -15 10 0 5 7 7 15 4 8 -4 15 -8 15
-10z m-30 -54 c0 -5 -4 -10 -10 -10 -5 0 -10 5 -10 10 0 6 5 10 10 10 6 0 10
-4 10 -10z m-94 -55 c-1 -14 -6 -28 -9 -32 -4 -3 -7 -19 -7 -34 0 -36 -12 -43
-34 -18 -16 19 -16 22 9 50 14 17 25 37 25 45 0 8 4 14 9 14 5 0 8 -11 7 -25z
m-289 -267 c-3 -8 -6 -5 -6 6 -1 11 2 17 5 13 3 -3 4 -12 1 -19z m717 -314 c4
-15 5 -28 3 -30 -8 -8 -39 35 -32 45 11 18 23 12 29 -15z m-389 -34 c10 -11
24 -20 32 -20 7 0 13 -5 13 -11 0 -7 -9 -9 -24 -5 -22 5 -25 2 -32 -37 -5 -32
-8 -37 -14 -23 -5 15 -8 17 -15 6 -6 -10 -10 -10 -20 3 -9 13 -10 29 -2 62 12
50 32 58 62 25z m-79 -35 c-9 -19 -14 -40 -10 -47 4 -7 3 -8 -4 -4 -14 8 -16
56 -3 56 5 0 11 10 14 22 4 12 9 19 13 15 4 -3 -1 -22 -10 -42z m244 -26 c0
-40 -22 -55 -34 -23 -8 20 -8 59 0 67 16 15 34 -8 34 -44z m-82 -12 c-3 -18
-8 -39 -12 -48 -4 -10 -1 -23 9 -33 9 -9 12 -16 7 -16 -20 0 -33 29 -29 64 2
20 1 39 -4 42 -4 2 -1 14 9 25 19 23 26 12 20 -34z m302 -19 c0 -10 -4 -18 -8
-18 -17 0 -52 41 -52 61 0 19 1 19 30 -3 17 -12 30 -30 30 -40z m-70 20 c0 -5
-4 -8 -10 -8 -5 0 -10 10 -10 23 0 18 2 19 10 7 5 -8 10 -18 10 -22z m153 -74
c-17 -27 -45 -25 -73 3 -13 14 -10 15 28 10 42 -5 57 5 25 17 -15 6 -15 8 -3
16 26 16 42 -17 23 -46z m-176 -10 c-3 -3 -12 -4 -19 -1 -8 3 -5 6 6 6 11 1
17 -2 13 -5z"/>
<path d="M3780 4730 c0 -5 5 -10 10 -10 6 0 10 5 10 10 0 6 -4 10 -10 10 -5 0
-10 -4 -10 -10z"/>
<path d="M9275 4730 c-3 -5 -2 -17 3 -26 8 -14 10 -14 15 5 5 22 -7 38 -18 21z"/>
<path d="M9385 4680 c3 -5 8 -10 11 -10 2 0 4 5 4 10 0 6 -5 10 -11 10 -5 0
-7 -4 -4 -10z"/>
<path d="M6232 4620 c0 -19 2 -27 5 -17 2 9 2 25 0 35 -3 9 -5 1 -5 -18z"/>
<path d="M9317 4624 c-13 -14 5 -24 24 -14 12 7 19 7 19 1 0 -6 8 -7 17 -4 15
6 15 7 -3 14 -24 10 -49 11 -57 3z"/>
<path d="M2284 4594 c-52 -35 -124 -108 -124 -126 0 -14 53 -31 140 -43 33 -5
52 -15 71 -37 29 -33 44 -101 28 -129 -5 -10 -6 -84 -1 -179 7 -156 6 -162
-13 -172 -31 -17 -135 -108 -146 -130 -9 -17 -8 -18 8 -10 26 13 81 38 126 56
20 8 37 22 37 30 0 12 7 14 29 10 35 -7 94 11 113 33 11 14 11 16 -2 11 -46
-18 -52 -18 -22 1 17 11 32 25 32 31 0 5 5 10 11 10 5 0 7 -4 4 -10 -3 -5 -2
-17 3 -26 8 -14 11 -11 20 15 10 29 9 31 -11 31 -20 1 -21 1 -4 11 14 8 22 8
30 0 6 -6 14 -11 18 -11 12 0 16 35 6 60 l-9 25 -15 -30 -14 -30 6 30 c7 33
20 45 49 45 12 0 16 -5 13 -15 -4 -8 -2 -17 3 -20 6 -4 10 0 10 9 0 8 3 21 6
29 3 9 0 14 -8 14 -7 -1 -15 3 -16 8 -2 6 -8 16 -14 23 -6 7 -7 16 -3 20 4 4
10 1 12 -5 3 -7 12 -13 21 -13 15 0 15 2 2 10 -10 6 -11 10 -2 10 6 0 12 7 12
16 0 8 -4 12 -10 9 -5 -3 -10 -1 -10 5 0 6 -4 8 -10 5 -5 -3 -10 -1 -10 4 0 6
9 16 20 23 11 7 20 17 20 22 0 4 -7 3 -15 -4 -13 -11 -18 -11 -28 0 -10 10 -9
11 2 5 11 -7 13 -4 6 11 -5 10 -9 30 -10 44 -2 28 -24 81 -39 91 -5 4 -6 13
-3 21 3 8 -4 20 -14 26 -10 7 -19 18 -19 25 0 7 -9 18 -20 25 -21 13 -17 42 6
42 21 0 17 14 -14 43 -25 24 -34 26 -73 21 -39 -5 -48 -3 -79 25 -43 38 -56
38 -106 5z m236 -49 c0 -8 -9 -15 -20 -15 -22 0 -27 15 -7 23 21 9 27 7 27 -8z
m38 -247 c50 -136 28 -287 -48 -328 -18 -9 -19 -7 -14 27 2 21 7 90 10 153 4
63 10 122 14 130 5 8 6 28 3 43 -9 47 15 30 35 -25z"/>
<path d="M3870 4570 c0 -5 5 -10 11 -10 5 0 7 5 4 10 -3 6 -8 10 -11 10 -2 0
-4 -4 -4 -10z"/>
<path d="M8710 4545 c-10 -12 -10 -19 -2 -27 9 -9 12 -9 12 1 0 7 5 9 11 5 8
-4 8 -9 0 -17 -19 -19 -13 -57 9 -57 11 0 20 6 20 13 0 8 9 22 20 32 11 10 20
14 20 8 0 -5 10 -9 23 -9 23 1 26 -12 12 -46 -6 -15 -2 -18 19 -18 14 0 26 5
26 10 0 6 4 10 10 10 5 0 9 -10 7 -22 -1 -14 4 -23 16 -26 11 -2 17 3 17 13 0
9 7 16 18 14 9 -1 30 -1 46 0 29 1 29 1 10 22 -14 16 -15 23 -6 26 14 5 16 32
2 35 -29 4 -35 2 -36 -12 -3 -43 -5 -50 -14 -50 -5 0 -8 14 -6 30 4 36 -18 52
-73 52 -20 0 -44 7 -53 15 -13 12 -18 13 -18 3 0 -12 -26 -11 -61 4 -9 4 -21
0 -29 -9z m210 -75 c0 -13 -11 -13 -30 0 -12 8 -11 10 8 10 12 0 22 -4 22 -10z"/>
<path d="M6231 4494 c0 -11 3 -14 6 -6 3 7 2 16 -1 19 -3 4 -6 -2 -5 -13z"/>
<path d="M2560 4480 c-12 -7 -10 -9 8 -7 12 0 22 5 22 9 0 11 -12 10 -30 -2z"/>
<path d="M8557 4418 c4 -30 1 -38 -11 -38 -23 0 -20 -21 4 -27 11 -3 20 -11
20 -18 0 -16 25 -26 45 -19 8 3 17 21 21 40 7 40 19 44 28 9 5 -18 13 -25 31
-25 16 0 25 6 25 15 0 8 -6 15 -14 15 -8 0 -21 6 -28 13 -26 26 -47 27 -50 4
-2 -16 -10 -22 -28 -22 -21 0 -25 4 -23 28 1 15 -2 27 -7 27 -5 0 -11 8 -13
18 -2 9 -2 0 0 -20z"/>
<path d="M8704 4415 c-18 -14 -18 -14 9 -15 15 0 27 4 27 9 0 18 -17 20 -36 6z"/>
<path d="M8800 4400 c0 -33 11 -38 30 -15 9 10 9 15 1 15 -6 0 -11 7 -11 15 0
8 -4 15 -10 15 -5 0 -10 -13 -10 -30z"/>
<path d="M2625 4400 c-3 -5 -1 -10 4 -10 6 0 11 5 11 10 0 6 -2 10 -4 10 -3 0
-8 -4 -11 -10z"/>
<path d="M8870 4374 c-12 -22 -12 -27 0 -34 23 -14 52 17 39 41 -13 26 -23 24
-39 -7z"/>
<path d="M1760 4380 c0 -5 4 -10 9 -10 6 0 13 5 16 10 3 6 -1 10 -9 10 -9 0
-16 -4 -16 -10z"/>
<path d="M8640 4305 c0 -8 2 -15 4 -15 2 0 6 7 10 15 3 8 1 15 -4 15 -6 0 -10
-7 -10 -15z"/>
<path d="M8683 4308 c2 -7 10 -13 17 -13 7 0 15 6 18 13 2 7 -5 12 -18 12 -13
0 -20 -5 -17 -12z"/>
<path d="M8736 4311 c-4 -7 -5 -15 -2 -18 9 -9 19 4 14 18 -4 11 -6 11 -12 0z"/>
<path d="M8240 4274 c0 -8 5 -12 10 -9 6 4 8 11 5 16 -9 14 -15 11 -15 -7z"/>
<path d="M8830 4263 c0 -5 7 -16 14 -26 12 -16 15 -16 27 -1 10 13 10 17 -2
25 -17 11 -39 12 -39 2z"/>
<path d="M2676 4243 c-6 -14 -5 -15 5 -6 7 7 10 15 7 18 -3 3 -9 -2 -12 -12z"/>
<path d="M8690 4250 c0 -5 5 -10 10 -10 6 0 10 5 10 10 0 6 -4 10 -10 10 -5 0
-10 -4 -10 -10z"/>
<path d="M8642 4230 c0 -14 2 -19 5 -12 2 6 2 18 0 25 -3 6 -5 1 -5 -13z"/>
<path d="M5426 4173 c-6 -14 -5 -15 5 -6 7 7 10 15 7 18 -3 3 -9 -2 -12 -12z"/>
<path d="M8760 4133 c0 -41 16 -61 23 -31 11 38 8 58 -8 58 -10 0 -15 -10 -15
-27z"/>
<path d="M8640 4021 c0 -12 5 -21 10 -21 6 0 10 6 10 14 0 8 -4 18 -10 21 -5
3 -10 -3 -10 -14z"/>
<path d="M5355 4000 c-3 -6 1 -7 9 -4 18 7 21 14 7 14 -6 0 -13 -4 -16 -10z"/>
<path d="M8580 3985 c0 -8 5 -15 10 -15 6 0 10 7 10 15 0 8 -4 15 -10 15 -5 0
-10 -7 -10 -15z"/>
<path d="M5330 3919 c0 -5 5 -7 10 -4 6 3 10 8 10 11 0 2 -4 4 -10 4 -5 0 -10
-5 -10 -11z"/>
<path d="M5295 3829 c-4 -6 -5 -12 -2 -15 2 -3 7 2 10 11 7 17 1 20 -8 4z"/>
<path d="M4335 3810 c-3 -5 -1 -10 4 -10 6 0 11 5 11 10 0 6 -2 10 -4 10 -3 0
-8 -4 -11 -10z"/>
<path d="M8160 3800 c0 -5 4 -10 9 -10 6 0 13 5 16 10 3 6 -1 10 -9 10 -9 0
-16 -4 -16 -10z"/>
<path d="M5260 3740 c-9 -6 -10 -10 -3 -10 6 0 15 5 18 10 8 12 4 12 -15 0z"/>
<path d="M8173 3663 c9 -2 25 -2 35 0 9 3 1 5 -18 5 -19 0 -27 -2 -17 -5z"/>
<path d="M8173 3633 c9 -2 23 -2 30 0 6 3 -1 5 -18 5 -16 0 -22 -2 -12 -5z"/>
<path d="M8394 3592 c5 -8 -1 -12 -16 -13 -18 -1 -19 -2 -4 -6 23 -6 43 12 25
22 -8 5 -10 4 -5 -3z"/>
<path d="M8448 3583 c7 -3 16 -2 19 1 4 3 -2 6 -13 5 -11 0 -14 -3 -6 -6z"/>
<path d="M8308 3573 c7 -3 16 -2 19 1 4 3 -2 6 -13 5 -11 0 -14 -3 -6 -6z"/>
<path d="M5190 3560 c-9 -6 -10 -10 -3 -10 6 0 15 5 18 10 8 12 4 12 -15 0z"/>
<path d="M7868 3553 c7 -3 16 -2 19 1 4 3 -2 6 -13 5 -11 0 -14 -3 -6 -6z"/>
<path d="M1795 3530 c-3 -5 1 -10 10 -10 9 0 13 5 10 10 -3 6 -8 10 -10 10 -2
0 -7 -4 -10 -10z"/>
<path d="M8778 3533 c7 -3 16 -2 19 1 4 3 -2 6 -13 5 -11 0 -14 -3 -6 -6z"/>
<path d="M5165 3510 c-3 -5 -1 -10 4 -10 6 0 11 5 11 10 0 6 -2 10 -4 10 -3 0
-8 -4 -11 -10z"/>
<path d="M5046 3205 c-16 -12 -17 -15 -4 -15 9 0 18 7 22 15 7 18 6 18 -18 0z"/>
<path d="M5031 3144 c0 -11 3 -14 6 -6 3 7 2 16 -1 19 -3 4 -6 -2 -5 -13z"/>
<path d="M5010 3110 c-13 -8 -12 -10 3 -10 9 0 17 5 17 10 0 12 -1 12 -20 0z"/>
<path d="M4820 3080 c0 -5 5 -10 11 -10 5 0 7 5 4 10 -3 6 -8 10 -11 10 -2 0
-4 -4 -4 -10z"/>
<path d="M4872 3060 c-22 -18 -22 -21 -8 -36 9 -8 16 -26 16 -39 0 -13 5 -27
10 -30 6 -3 10 -19 10 -36 0 -19 5 -29 15 -29 18 0 20 17 3 22 -15 5 11 68 28
68 11 0 12 -26 5 -115 -2 -30 -2 -30 -12 -6 l-10 25 -29 -33 c-17 -18 -30 -37
-30 -42 0 -8 46 -6 92 3 17 4 23 -39 7 -58 -9 -11 -9 -18 -1 -26 9 -9 12 -7
12 9 0 12 4 24 9 27 10 6 2 58 -10 66 -4 3 -9 47 -10 98 -2 83 -4 92 -20 87
-14 -5 -18 1 -21 27 -4 39 -24 46 -56 18z"/>
<path d="M9086 3043 c-11 -33 -33 -48 -51 -33 -8 6 -23 9 -34 5 -10 -3 -22 -1
-26 5 -10 16 -52 12 -59 -6 -3 -9 -6 -26 -6 -39 0 -13 -4 -26 -8 -29 -5 -3 -9
-21 -10 -41 -1 -20 -5 -41 -8 -47 -4 -7 -7 -31 -5 -55 1 -26 -2 -43 -9 -43 -6
0 -8 -5 -5 -11 5 -7 15 -3 29 10 34 32 74 26 131 -19 51 -41 80 -50 88 -27 6
18 -4 47 -17 47 -25 0 -36 38 -26 91 6 28 10 53 10 55 0 2 13 4 29 4 21 0 32
-6 36 -21 5 -16 14 -20 43 -17 33 3 37 6 34 29 -2 20 2 28 17 32 12 3 21 13
21 22 0 26 -44 15 -48 -12 -3 -19 -7 -17 -45 22 -50 51 -62 66 -69 85 -4 11
-7 9 -12 -7z m-169 -199 c-3 -3 -12 -4 -19 -1 -8 3 -5 6 6 6 11 1 17 -2 13 -5z
m63 -4 c0 -5 -4 -10 -10 -10 -5 0 -10 5 -10 10 0 6 5 10 10 10 6 0 10 -4 10
-10z"/>
<path d="M9250 2774 c0 -7 27 -34 34 -34 3 0 3 6 0 14 -5 14 -34 31 -34 20z"/>
<path d="M9360 2741 c0 -5 9 -7 20 -4 11 3 20 7 20 9 0 2 -9 4 -20 4 -11 0
-20 -4 -20 -9z"/>
<path d="M8840 2675 c-9 -11 -10 -18 -1 -28 13 -17 7 -120 -9 -125 -14 -5 -12
-34 5 -56 8 -11 15 -31 15 -45 0 -21 5 -17 38 30 31 45 46 57 87 70 28 9 49
22 48 28 -2 6 3 11 10 11 6 0 3 6 -7 12 -15 8 -21 8 -24 0 -11 -33 -64 10 -83
68 -18 51 -53 67 -79 35z"/>
<path d="M4965 2650 c4 -6 11 -8 16 -5 14 9 11 15 -7 15 -8 0 -12 -5 -9 -10z"/>
<path d="M4900 2639 c0 -5 5 -7 10 -4 6 3 10 8 10 11 0 2 -4 4 -10 4 -5 0 -10
-5 -10 -11z"/>
<path d="M4901 2578 c-1 -21 3 -26 15 -21 9 3 11 9 6 12 -5 3 -12 13 -15 21
-3 9 -6 4 -6 -12z"/>
<path d="M4668 2460 c-5 -50 -3 -59 12 -44 7 7 7 25 2 50 l-9 39 -5 -45z"/>
<path d="M5030 2480 c0 -12 39 -20 46 -9 3 5 2 9 -3 10 -4 0 -16 2 -25 4 -10
2 -18 0 -18 -5z"/>
<path d="M5160 2480 c-9 -6 -10 -10 -3 -10 6 0 18 -3 27 -6 11 -4 16 -1 16 10
0 18 -17 21 -40 6z"/>
<path d="M9132 2434 c-7 -8 -14 -23 -15 -34 -1 -11 -7 -20 -14 -20 -8 0 -16
-7 -20 -15 -7 -20 -42 -16 -67 7 -24 22 -36 15 -36 -23 0 -18 -4 -28 -10 -24
-5 3 -10 2 -10 -4 0 -16 -35 -22 -63 -12 -18 7 -27 7 -31 -2 -3 -9 -7 -9 -14
1 -5 8 -20 12 -33 10 -18 -2 -23 -9 -21 -26 1 -17 -4 -25 -18 -29 -23 -6 -28
-25 -6 -21 8 2 16 -1 17 -5 4 -14 -24 -77 -34 -77 -5 0 -6 -13 -2 -29 4 -17 1
-38 -6 -49 -10 -16 -9 -24 9 -50 12 -17 18 -32 12 -34 -6 -2 -4 -15 5 -32 15
-28 14 -50 -1 -91 -10 -28 -45 -65 -55 -59 -5 3 -9 -6 -9 -20 0 -14 2 -26 4
-26 2 0 24 20 49 44 52 50 77 93 77 131 0 15 9 38 20 52 11 14 20 33 20 42 0
13 2 14 9 2 8 -12 12 -12 26 2 33 34 119 16 181 -36 36 -30 49 -32 87 -14 26
12 46 55 30 66 -31 22 -60 72 -56 95 7 32 34 34 74 5 16 -11 33 -18 38 -14 10
5 14 2 51 -45 l19 -25 2 85 c1 47 3 95 4 108 2 23 -14 29 -31 12 -5 -5 -24 -6
-48 0 -48 11 -69 3 -63 -21 3 -11 1 -17 -4 -13 -5 3 -9 -2 -9 -11 0 -9 -14
-22 -32 -29 -26 -11 -38 -11 -67 -1 -30 10 -35 16 -33 36 2 13 1 21 -4 17 -8
-9 -34 9 -34 23 0 5 11 9 24 9 14 0 35 13 52 33 18 21 52 42 92 56 52 20 60
26 50 38 -6 8 -20 12 -29 10 -10 -3 -23 1 -30 9 -15 18 -30 17 -47 -2z m-262
-175 c0 -5 10 -9 23 -9 57 0 94 -32 82 -71 -8 -24 -49 -25 -72 -1 -10 9 -29
17 -43 17 -26 0 -56 44 -47 69 6 15 57 10 57 -5z m-25 -137 c6 -4 11 -17 11
-30 1 -16 -5 -24 -25 -28 -45 -10 -57 -16 -43 -21 6 -3 12 -9 12 -14 0 -16
-15 -10 -28 12 -11 18 -11 23 4 33 10 8 15 20 11 29 -4 11 1 17 16 20 12 2 24
5 27 5 3 1 10 -2 15 -6z m-65 -32 c0 -5 -5 -10 -11 -10 -5 0 -7 5 -4 10 3 6 8
10 11 10 2 0 4 -4 4 -10z"/>
<path d="M4735 2429 c-11 -17 1 -21 15 -4 8 9 8 15 2 15 -6 0 -14 -5 -17 -11z"/>
<path d="M4900 2425 c-7 -9 -8 -15 -2 -15 5 0 12 7 16 15 3 8 4 15 2 15 -2 0
-9 -7 -16 -15z"/>
<path d="M4967 2423 c-4 -3 -7 -11 -7 -17 0 -6 5 -5 12 2 6 6 9 14 7 17 -3 3
-9 2 -12 -2z"/>
<path d="M5195 2400 c-3 -5 -1 -10 4 -10 6 0 11 5 11 10 0 6 -2 10 -4 10 -3 0
-8 -4 -11 -10z"/>
<path d="M4960 2240 c0 -5 5 -10 10 -10 6 0 10 5 10 10 0 6 -4 10 -10 10 -5 0
-10 -4 -10 -10z"/>
<path d="M9570 2220 c0 -5 7 -10 16 -10 8 0 12 5 9 10 -3 6 -10 10 -16 10 -5
0 -9 -4 -9 -10z"/>
<path d="M4956 2161 c-4 -5 -2 -12 3 -15 5 -4 12 -2 15 3 4 5 2 12 -3 15 -5 4
-12 2 -15 -3z"/>
<path d="M4958 2065 c-4 -20 -3 -23 8 -14 16 13 19 39 5 39 -5 0 -11 -11 -13
-25z"/>
<path d="M4957 1990 c-3 -11 -1 -20 4 -20 5 0 9 2 9 4 0 2 3 11 6 20 3 9 2 16
-4 16 -5 0 -12 -9 -15 -20z"/>
<path d="M9586 1982 c-4 -18 -5 -36 -2 -39 11 -12 17 5 14 39 l-3 33 -9 -33z"/>
<path d="M9285 1975 c-16 -9 -42 -30 -57 -47 -16 -17 -28 -26 -28 -19 0 26
-21 8 -45 -39 -37 -73 -33 -117 8 -79 11 10 29 19 40 19 10 0 27 5 38 11 11 5
29 7 40 4 18 -6 20 -12 14 -46 -9 -53 9 -51 27 3 8 23 26 51 41 62 24 18 31
19 62 7 20 -7 45 -9 58 -5 12 4 29 7 38 6 12 -2 15 3 12 23 -6 30 -13 31 -45
5 -25 -19 -25 -19 -45 3 -12 12 -24 32 -28 45 -3 12 -24 31 -45 42 -47 24 -47
24 -85 5z"/>
<path d="M4890 1920 c0 -11 2 -20 4 -20 2 0 6 9 9 20 3 11 1 20 -4 20 -5 0 -9
-9 -9 -20z"/>
<path d="M4959 1914 c-11 -30 -3 -46 11 -24 10 16 13 50 5 50 -3 0 -10 -12
-16 -26z"/>
<path d="M4890 1845 c0 -8 2 -15 4 -15 2 0 6 7 10 15 3 8 1 15 -4 15 -6 0 -10
-7 -10 -15z"/>
<path d="M4966 1843 c-6 -14 -5 -15 5 -6 7 7 10 15 7 18 -3 3 -9 -2 -12 -12z"/>
<path d="M8932 1820 c-16 -26 -15 -30 6 -30 21 0 42 18 42 37 0 20 -34 15 -48
-7z"/>
<path d="M8855 1777 c-48 -28 -83 -61 -78 -73 7 -18 32 -22 66 -11 20 7 27 15
27 35 0 14 7 34 17 44 19 21 2 24 -32 5z"/>
<path d="M4940 1754 l-25 -14 26 0 c16 0 26 5 26 15 0 8 -1 15 -1 14 -1 -1
-12 -7 -26 -15z"/>
<path d="M9241 1718 c-5 -13 -7 -33 -5 -45 3 -18 1 -21 -12 -16 -10 4 -15 2
-11 -4 3 -5 -3 -24 -13 -41 -17 -27 -25 -31 -52 -29 -38 4 -58 -8 -58 -35 0
-10 -11 -41 -25 -68 -14 -27 -25 -55 -25 -62 0 -7 -9 -19 -20 -26 -30 -18 -62
1 -54 32 8 33 -25 146 -45 154 -9 3 -22 14 -29 24 -23 32 -55 19 -70 -27 -16
-51 -47 -78 -80 -70 -24 6 -24 5 -18 -44 8 -64 15 -81 33 -81 12 0 13 -3 4
-14 -8 -10 -9 -21 0 -42 6 -16 11 -59 12 -96 1 -58 3 -68 19 -68 16 0 42 -32
34 -41 -2 -2 11 -5 30 -6 19 -1 46 -11 60 -22 35 -28 58 -26 82 4 16 20 21 22
26 10 3 -8 12 -15 20 -15 9 0 18 -12 22 -27 10 -47 13 -53 27 -53 8 0 27 11
42 24 28 24 29 25 42 6 10 -15 12 -36 7 -81 l-7 -62 25 6 c28 7 49 -15 61 -64
6 -24 3 -29 -32 -42 -21 -9 -41 -23 -44 -31 -4 -9 -15 -16 -26 -16 -11 0 -32
-11 -47 -25 -36 -33 -64 -32 -100 6 -25 26 -29 37 -27 81 3 58 -3 74 -21 59
-10 -8 -16 -4 -25 16 l-12 27 -34 -37 c-29 -32 -37 -35 -69 -30 l-36 6 4 -74
c4 -69 18 -130 27 -119 2 2 14 -2 26 -11 35 -24 43 -86 50 -377 l6 -272 193 0
193 0 -5 116 c-3 69 -10 130 -19 151 -27 63 -11 168 26 181 20 8 20 8 0 34
-24 30 -27 75 -6 102 10 13 11 25 4 44 -11 28 -7 34 32 54 l26 14 -27 57 -27
58 29 24 c19 16 42 25 63 25 19 0 37 5 41 11 10 17 94 -76 94 -105 0 -13 -9
-35 -20 -49 -11 -14 -20 -32 -20 -41 0 -21 -26 -20 -39 2 -8 13 -9 10 -6 -17
2 -18 6 -36 9 -38 3 -3 -1 -18 -8 -32 -8 -14 -17 -34 -20 -45 -4 -13 -13 -17
-29 -14 -20 4 -25 -2 -35 -34 -12 -37 -11 -40 17 -63 41 -35 58 -80 60 -155 1
-36 6 -94 11 -130 8 -54 6 -67 -7 -82 -13 -15 -13 -18 -2 -19 8 0 4 -5 -8 -11
-13 -6 -23 -17 -23 -25 0 -10 23 -13 100 -13 l100 0 0 50 c0 46 -11 63 -25 40
-7 -11 -65 -9 -65 3 0 4 -9 18 -20 30 -12 12 -23 32 -26 44 -4 13 -10 23 -15
23 -5 0 -9 7 -9 15 0 8 6 15 13 15 7 0 8 3 2 8 -17 12 -17 42 0 48 19 8 20 48
0 64 -17 14 -21 85 -5 95 6 3 10 13 10 21 0 8 -4 12 -10 9 -6 -4 -10 7 -10 25
0 34 17 45 53 37 20 -6 22 -13 24 -68 2 -66 18 -92 40 -62 10 13 15 14 27 4
14 -11 15 5 15 137 0 110 -3 152 -12 155 -9 3 -9 7 0 18 8 10 12 124 13 408
l1 394 -22 -6 c-12 -3 -31 -1 -42 5 -17 9 -19 8 -15 -10 6 -23 -13 -20 -43 7
-9 9 -29 24 -44 35 -23 16 -26 23 -20 52 9 50 -11 41 -24 -10 -6 -25 -16 -48
-21 -51 -7 -4 -4 -19 10 -41 24 -42 25 -60 3 -72 -26 -15 -25 -57 2 -72 25
-13 45 -49 45 -81 0 -25 -63 -89 -89 -89 -24 0 -51 36 -51 68 0 27 -26 82 -39
82 -5 0 -12 13 -16 29 -3 16 -13 35 -20 41 -23 19 6 40 55 40 27 0 40 4 38 12
-5 14 -38 20 -38 7 0 -20 -18 -7 -30 22 -11 25 -10 42 4 99 9 37 16 75 16 85
0 9 4 14 9 11 14 -9 31 40 18 53 -18 18 -37 13 -46 -11z m-77 -362 c-3 -9 -10
-16 -15 -16 -5 0 -4 9 3 20 14 22 21 20 12 -4z m54 -98 c6 -7 11 -33 13 -58 1
-25 7 -51 13 -59 11 -14 16 -32 20 -67 1 -11 6 -25 10 -32 4 -7 2 -12 -4 -12
-6 0 -13 13 -16 30 -4 19 -18 37 -39 50 -38 23 -52 77 -34 129 12 34 21 38 37
19z m128 -210 c-2 -13 1 -29 6 -35 8 -9 6 -13 -6 -13 -9 0 -16 3 -17 8 0 4 -2
16 -4 26 -4 22 2 36 16 36 5 0 7 -10 5 -22z m74 -18 c0 -5 -2 -10 -4 -10 -3 0
-8 5 -11 10 -3 6 -1 10 4 10 6 0 11 -4 11 -10z m40 -68 c0 -5 -7 -9 -15 -9 -8
0 -12 4 -9 9 3 4 9 8 15 8 5 0 9 -4 9 -8z"/>
<path d="M9562 1708 c3 -7 13 -15 24 -17 16 -3 17 -1 5 13 -16 19 -34 21 -29
4z"/>
<path d="M8965 1680 c3 -5 8 -10 11 -10 2 0 4 5 4 10 0 6 -5 10 -11 10 -5 0
-7 -4 -4 -10z"/>
<path d="M9351 1614 c0 -11 3 -14 6 -6 3 7 2 16 -1 19 -3 4 -6 -2 -5 -13z"/>
<path d="M290 1566 c0 -31 26 -42 34 -14 6 26 0 38 -20 38 -8 0 -14 -10 -14
-24z"/>
<path d="M335 1550 c-8 -12 17 -23 41 -18 10 1 19 9 22 16 5 15 -54 17 -63 2z"/>
<path d="M87 1415 c-10 -14 -14 -25 -8 -25 5 0 11 -8 13 -17 3 -11 -14 -35
-44 -64 -44 -42 -48 -50 -47 -90 0 -24 3 -38 6 -31 7 17 33 15 33 -3 0 -8 -9
-24 -20 -35 -18 -18 -20 -33 -20 -191 0 -132 3 -170 13 -167 6 3 16 14 22 26
7 16 22 23 55 27 25 4 52 7 60 8 8 1 17 13 18 26 3 16 0 21 -8 16 -8 -5 -11
-3 -8 6 3 9 19 14 41 14 24 0 44 8 61 24 24 22 37 27 93 30 23 1 38 34 35 74
0 9 3 15 8 12 4 -3 11 6 14 20 3 13 15 29 26 35 11 6 20 18 20 27 0 13 -3 13
-15 3 -25 -20 -29 -4 -7 27 11 15 23 43 27 61 3 18 14 40 23 49 16 15 14 16
-20 10 -21 -3 -40 -1 -43 4 -4 5 -17 6 -31 3 -21 -5 -24 -3 -24 20 0 19 -5 26
-20 26 -11 0 -20 -4 -20 -8 0 -5 -11 -14 -24 -21 -29 -16 -86 -6 -86 15 0 8
-9 14 -19 14 -14 0 -19 6 -16 20 4 22 -10 28 -18 8 -3 -7 -6 -1 -6 14 -2 62
-32 77 -64 33z"/>
<path d="M521 1029 c-42 -56 -49 -129 -12 -129 37 0 62 -106 30 -126 -14 -9
-10 -70 6 -84 22 -18 50 -8 52 20 1 14 6 43 12 65 15 56 14 96 -3 109 -11 9
-12 24 -5 79 7 50 7 72 -2 83 -19 24 -54 16 -78 -17z"/>
<path d="M7940 110 c0 -5 5 -10 10 -10 6 0 10 5 10 10 0 6 -4 10 -10 10 -5 0
-10 -4 -10 -10z"/>
</g>
</svg>
