<svg xmlns="http://www.w3.org/2000/svg"  viewBox="0 0 64 64" width="256px" height="256px"><radialGradient id="Ji~Tu~m7yZOjhbEYlk01fa" cx="32" cy="32.5" r="45.948" gradientTransform="matrix(1 0 0 -1 0 66)" gradientUnits="userSpaceOnUse"><stop offset="0" stop-color="#9ceeff"/><stop offset=".642" stop-color="#c5f5ff"/><stop offset="1" stop-color="#dcf9ff"/></radialGradient><path fill="url(#Ji~Tu~m7yZOjhbEYlk01fa)" d="M63.917,34.171C63.539,32.287,61.771,31,59.849,31h-1.223c-1.775,0-3.49-1.434-3.616-3.204	c-0.15-2.101,1.308-3.853,3.394-3.794c1.269,0.036,2.51-0.511,3.107-1.632C62.937,19.69,61.033,17,58.5,17h-0.411	c-1.307,0-2.547-0.786-2.938-2.033C54.503,12.9,56.03,11,58,11h2c2.48,0,4.432-2.257,3.917-4.828C63.539,4.287,61.772,3,59.849,3	H16.151c-1.923,0-3.69,1.287-4.068,3.172C11.568,8.743,13.52,11,16,11h1.381c1.169,0,2.272,0.744,2.545,1.88	C20.321,14.529,19.082,16,17.5,16H7.699c-1.733,0-3.347,1.165-3.644,2.873C3.671,21.082,5.361,23,7.5,23h1.411	c1.306,0,2.547,0.786,2.938,2.033C12.497,27.1,10.971,29,9,29H4.208c-2.109,0-4.008,1.539-4.192,3.64C-0.192,35.01,1.672,37,4,37	h2.302c1.895,0,3.594,1.419,3.693,3.312C10.101,42.33,8.495,44,6.5,44H6.151c-1.923,0-3.69,1.288-4.068,3.173	C1.568,49.744,3.52,52,6,52h1c1.657,0,3,1.343,3,3l0,0c0,1.657-1.343,3-3,3H6.111c-1.451,0-2.781,0.981-3.054,2.406	C2.689,62.323,4.149,64,6,64h25.889c1.451,0,2.781-0.981,3.054-2.406C35.311,59.677,33.851,58,32,58h-2.5	c-0.828,0-1.5-0.672-1.5-1.5l0,0c0-0.828,0.672-1.5,1.5-1.5h24.831c2.164,0,4.152-1.449,4.576-3.571	C59.485,48.536,57.289,46,54.5,46h-2.829c-1.717,0-3.308-1.158-3.612-2.848C47.659,40.932,49.354,39,51.5,39H60	C62.48,39,64.433,36.742,63.917,34.171z"/><linearGradient id="Ji~Tu~m7yZOjhbEYlk01fb" x1="211.23" x2="211.23" y1="445.552" y2="479.598" gradientTransform="scale(1 -1) rotate(-30 -859.243 567.025)" gradientUnits="userSpaceOnUse"><stop offset="0" stop-color="#fdbe50"/><stop offset=".004" stop-color="#fdbe50"/><stop offset=".641" stop-color="#fcbc75"/><stop offset="1" stop-color="#fdbb83"/><stop offset="1" stop-color="#fdbb83"/></linearGradient><path fill="url(#Ji~Tu~m7yZOjhbEYlk01fb)" d="M17.565,55.359L17.565,55.359c-2.255-1.319-3.028-4.241-1.726-6.526l5.658-9.929l8.167,4.777	l-5.658,9.929C22.704,55.896,19.82,56.678,17.565,55.359z"/><linearGradient id="Ji~Tu~m7yZOjhbEYlk01fc" x1="210.844" x2="211.217" y1="537.433" y2="482.338" gradientTransform="scale(1 -1) rotate(-30 -859.243 567.025)" gradientUnits="userSpaceOnUse"><stop offset="0" stop-color="#ff634d"/><stop offset=".204" stop-color="#fe6464"/><stop offset=".521" stop-color="#fc6581"/><stop offset=".794" stop-color="#fa6694"/><stop offset=".989" stop-color="#fa669a"/><stop offset="1" stop-color="#fa669a"/></linearGradient><path fill="url(#Ji~Tu~m7yZOjhbEYlk01fc)" d="M48.567,27.709l-5.993,10.516c-1.458-1.008-3.447-1.145-5.031-2.071	c-6.716-3.929-19.337-8.674-19.337-8.674l6.521-11.443c3.885,0.443,8.53,0.658,12.787,2.295c3.087,1.187,5.746,3.515,8.844,5.326	c1.084,0.634,2.132,1.291,3.15,1.964c0.008,0.005,0.008,0.005,0.008,0.005C49.267,26.342,48.954,27.031,48.567,27.709z"/><linearGradient id="Ji~Tu~m7yZOjhbEYlk01fd" x1="211.175" x2="211.175" y1="494.771" y2="447.195" gradientTransform="scale(1 -1) rotate(-30 -859.243 567.025)" gradientUnits="userSpaceOnUse"><stop offset="0" stop-color="#00d772"/><stop offset=".746" stop-color="#00b26e"/><stop offset="1" stop-color="#00b26e"/></linearGradient><path fill="url(#Ji~Tu~m7yZOjhbEYlk01fd)" d="M42.574,38.226l-5.559,9.755c-0.783,1.374-2.55,1.818-3.955,0.996L15.273,38.574	c-1.406-0.822-1.909-2.595-1.126-3.968l4.06-7.124c6.256,1.288,13.092,3.918,19.808,7.846	C39.598,36.254,41.116,37.218,42.574,38.226z"/><linearGradient id="Ji~Tu~m7yZOjhbEYlk01fe" x1="211.465" x2="211.465" y1="483.237" y2="509.886" gradientTransform="scale(1 -1) rotate(-30 -860.243 567.025)" gradientUnits="userSpaceOnUse"><stop offset="0" stop-color="#ff7d5c"/><stop offset=".214" stop-color="#ff7e72"/><stop offset=".524" stop-color="#fc7e8c"/><stop offset=".793" stop-color="#fa7f9c"/><stop offset=".989" stop-color="#fa7fa2"/><stop offset="1" stop-color="#fa7fa2"/></linearGradient><path fill="url(#Ji~Tu~m7yZOjhbEYlk01fe)" d="M32.797,29.597L32.797,29.597c-1.117-0.645-1.5-2.074-0.855-3.191l0,0	c0.645-1.117,2.074-1.5,3.191-0.855l0,0c1.117,0.645,1.5,2.074,0.855,3.191l0,0C35.343,29.859,33.915,30.242,32.797,29.597z"/><linearGradient id="Ji~Tu~m7yZOjhbEYlk01ff" x1="203.878" x2="203.878" y1="483.237" y2="509.886" gradientTransform="scale(1 -1) rotate(-30 -860.243 567.025)" gradientUnits="userSpaceOnUse"><stop offset="0" stop-color="#ff7d5c"/><stop offset=".214" stop-color="#ff7e72"/><stop offset=".524" stop-color="#fc7e8c"/><stop offset=".793" stop-color="#fa7f9c"/><stop offset=".989" stop-color="#fa7fa2"/><stop offset="1" stop-color="#fa7fa2"/></linearGradient><path fill="url(#Ji~Tu~m7yZOjhbEYlk01ff)" d="M36.399,20.443c-0.887,1.031-2.421,1.203-3.595,0.525l-2.744-1.584	c-0.672-0.388-1.527-0.159-1.915,0.513s-0.159,1.527,0.513,1.915l0,0c1.19,0.687,1.548,2.253,0.726,3.397	c-0.713,0.992-2.115,1.196-3.175,0.584l-5.293-3.056l3.814-6.7c3.875,0.446,8.046,1.483,12.302,3.121	C36.943,19.613,36.732,20.052,36.399,20.443z"/><linearGradient id="Ji~Tu~m7yZOjhbEYlk01fg" x1="197.683" x2="223.95" y1="511.947" y2="511.947" gradientTransform="scale(1 -1) rotate(-30 -860.243 567.025)" gradientUnits="userSpaceOnUse"><stop offset="0" stop-color="#feaa53"/><stop offset=".063" stop-color="#feb450"/><stop offset=".188" stop-color="#ffc24c"/><stop offset=".341" stop-color="#ffcb4a"/><stop offset=".609" stop-color="#ffcd49"/><stop offset="1" stop-color="#ffde44"/></linearGradient><path fill="url(#Ji~Tu~m7yZOjhbEYlk01fg)" d="M49.506,25.626c-1.015-0.672-2.068-1.334-3.148-1.968c-3.098-1.811-6.236-3.31-9.326-4.5	c-4.256-1.637-8.426-2.675-12.302-3.121c0.934-1.688,1.98-3.562,3.474-4.803c0.986-0.922,2.144-1.615,3.358-2.172	c0.932-0.378,1.917-0.707,2.915-0.863c2.82-0.507,5.799-0.032,8.342,1.288c0.228,0.11,0.454,0.241,0.673,0.367	c3.163,1.848,5.307,4.769,6.227,7.998C50.441,20.381,50.4,23.088,49.506,25.626z"/><linearGradient id="Ji~Tu~m7yZOjhbEYlk01fh" x1="205.276" x2="205.276" y1="468.959" y2="522.972" gradientTransform="scale(1 -1) rotate(-30 -860.243 567.025)" gradientUnits="userSpaceOnUse"><stop offset="0" stop-color="#fcb368"/><stop offset=".612" stop-color="#fdd360"/><stop offset="1" stop-color="#ffe15c"/></linearGradient><path fill="url(#Ji~Tu~m7yZOjhbEYlk01fh)" d="M43.499,13.751c-0.887,1.031-2.421,1.203-3.595,0.525l-3.148-1.818	c-0.445-0.257-0.952-0.313-1.417-0.181c-0.468,0.119-0.88,0.421-1.136,0.866c-0.514,0.89-0.206,2.039,0.684,2.553l0.809,0.467	c1.068,0.617,1.581,1.841,1.336,2.994c-4.256-1.637-8.426-2.675-12.302-3.121l0.973-1.704c1.315-2.345,3.417-4.19,5.86-5.271	c3.369-1.456,7.315-1.401,10.652,0.129c0.195,0.091,0.391,0.183,0.582,0.282l0.024,0.014C44.301,10.362,44.686,12.387,43.499,13.751	z"/><linearGradient id="Ji~Tu~m7yZOjhbEYlk01fi" x1="216.716" x2="216.716" y1="502.265" y2="463.031" gradientTransform="scale(1 -1) rotate(-30 -860.243 567.025)" gradientUnits="userSpaceOnUse"><stop offset="0" stop-color="#00d772"/><stop offset=".746" stop-color="#00b26e"/><stop offset="1" stop-color="#00b26e"/></linearGradient><path fill="url(#Ji~Tu~m7yZOjhbEYlk01fi)" d="M37.011,47.978c-0.777,1.364-2.537,1.816-3.937,1.007l-8.603-4.967	c-0.154-0.089-0.29-0.189-0.409-0.301c-0.853-0.784-1.034-2.097-0.317-3.096c0.713-0.992,2.115-1.196,3.175-0.584l6.361,3.673	c0.672,0.388,1.527,0.159,1.915-0.513c0.388-0.671,0.159-1.527-0.513-1.915l-0.696-0.402c-1.06-0.612-1.584-1.929-1.082-3.042	c0.579-1.284,2.115-1.757,3.305-1.07l5.414,3.126L37.011,47.978z"/></svg>